<svg xmlns="http://www.w3.org/2000/svg" width="584" height="491" viewBox="0 0 584 491">
    <defs>
        <clipPath id="clip-path">
            <path id="Rectangle_186" fill="#fff" stroke="#707070" d="M0 0H584V491H0z" transform="translate(694 2143)"/>
        </clipPath>
        <clipPath id="clip-path-2">
            <path id="Path_498" d="M176.709 121.393l42.066-24.265c.753-.432 1.362-.077 1.362.786v53.5a3.011 3.011 0 0 1-1.362 2.358l-42.066 24.221c-.753.432-1.373.077-1.373-.786V123.75a3.022 3.022 0 0 1 1.373-2.358z" class="cls-2"/>
        </clipPath>
        <clipPath id="clip-path-3">
            <path id="Path_545" d="M176.709 223.335l42.066-24.265c.753-.443 1.362-.089 1.362.786v53.5a3.011 3.011 0 0 1-1.362 2.358l-42.066 24.221c-.753.432-1.373.078-1.373-.786v-53.456a3 3 0 0 1 1.373-2.358z" class="cls-2"/>
        </clipPath>
        <clipPath id="clip-path-4">
            <path id="Path_652" d="M176.709 325.333l42.066-24.265c.753-.432 1.362-.077 1.362.786v53.49a3.011 3.011 0 0 1-1.362 2.358l-42.066 24.221c-.753.432-1.373.077-1.373-.786v-53.468a3.022 3.022 0 0 1 1.373-2.336z" class="cls-2"/>
        </clipPath>
        <style>
            .cls-14,.cls-22{fill:#fff}.cls-2{fill:none}.cls-6{fill:#fafafa}.cls-7{fill:#ebebeb}.cls-8{fill:#e0e0e0}.cls-9{fill:#37474f}.cls-10{fill:#ba68c8}.cls-11{fill:#263238}.cls-12{fill:#455a64}.cls-13{fill:#579a2b}.cls-16{fill:#b16668}.cls-17{fill:#9a4a4d}.cls-19{fill:#ffa8a7}.cls-20{fill:#f28f8f}.cls-21{opacity:.3}.cls-22{opacity:.4}.cls-27{fill:#f0f0f0}
        </style>
    </defs>
    <g id="Mask_Group_20" clip-path="url(#clip-path)" transform="translate(-694 -2143)">
        <g id="Hiring-amico" transform="translate(706.867 2107.327)">
            <g id="freepik--Floor--inject-3">
                <ellipse id="freepik--floor--inject-3-2" cx="219.66" cy="109.658" fill="#f5f5f5" rx="219.66" ry="109.658" transform="translate(70.239 307.356)"/>
            </g>
            <g id="freepik--Shadow--inject-3">
                <path id="freepik--shadow--inject-3-2" fill="#e6e6e6" d="M474.312 445.873c-18.011 9.708-47.2 9.708-65.2 0s-18.011-25.461 0-35.18 47.191-9.719 65.2 0 18 25.461 0 35.18z"/>
            </g>
            <g id="freepik--Resumes--inject-3">
                <path id="Path_469" d="M99.452 242.774l-4.107-2.374a2.424 2.424 0 0 1-1.107-2.214v-80.661a7.671 7.671 0 0 1 3.465-6.011L280.068 46.56a2.458 2.458 0 0 1 2.4-.266l4.1 2.358-3.077 80.511a7.683 7.683 0 0 1-3.476 6z" class="cls-6"/>
                <path id="Path_470" d="M98.411 159.894v80.622c0 2.214 1.55 3.111 3.465 2l182.3-104.954a7.671 7.671 0 0 0 3.465-6.011V50.922c0-2.214-1.561-3.111-3.476-2l-182.322 104.95a7.683 7.683 0 0 0-3.432 6.022z" class="cls-7"/>
                <path id="Path_471" d="M95.334 240.394l3.974 2.291a2.535 2.535 0 0 1-.9-2.214v-80.588a7 7 0 0 1 .908-3.221l-4.116-2.37a6.974 6.974 0 0 0-.908 3.232v80.622a2.4 2.4 0 0 0 1.041 2.214z" class="cls-8"/>
                <path id="Path_472" d="M113.168 221.808l-5.1-2.945a3.122 3.122 0 0 1-1.406-2.435v-42.465a3.1 3.1 0 0 1 1.406-2.435l49.981-28.859a3.144 3.144 0 0 1 2.812 0l5.1 2.945a3.144 3.144 0 0 1 1.406 2.446v42.464a3.122 3.122 0 0 1-1.406 2.435l-49.971 28.849a3.1 3.1 0 0 1-2.823 0z" class="cls-9" transform="translate(0 -1)"/>
                <path id="Path_477" d="M144.927 173.1l-1.317-.764-7.915 4.572 1.317.764z" class="cls-10"/>
                <path id="Path_479" d="M135.695 176.908V183l1.317.764v-6.088z" class="cls-10"/>
                <g id="Group_334">
                    <path id="Path_473" d="M115.747 221.918a3.1 3.1 0 0 1-2.568-.111l-5.114-2.945a3.122 3.122 0 0 1-1.406-2.435v-42.475a2.889 2.889 0 0 1 .41-1.384l7.926 4.572a2.79 2.79 0 0 0-.421 1.395V221c-.001.808.553 1.173 1.173.918z" class="cls-11"/>
                    <path id="Path_474" d="M114.585 178.535V221c0 .9.62 1.262 1.406.808l49.97-28.848a3.122 3.122 0 0 0 1.406-2.435V148.06c0-.9-.631-1.262-1.406-.819L115.99 176.1a3.077 3.077 0 0 0-1.405 2.435z" class="cls-12"/>
                    <path id="Path_475" d="M114.585 192.14l52.781-30.475v1.528l-52.792 30.475z" class="cls-11"/>
                    <path id="Path_476" d="M137.012 177.672l7.915-4.572v6.088l-7.915 4.572z" class="cls-13"/>
                    <path id="Path_478" d="M144.927 173.1l-1.317-.764-7.915 4.572 1.317.764z" class="cls-13"/>
                    <path id="Path_480" d="M135.695 176.908V183l1.317.764v-6.088z" class="cls-13"/>
                    <path id="Path_481" d="M126.54 165.495c-.9 0-1.627-.077-1.627-.974v-7.328a7.815 7.815 0 0 1 3.62-6.288l14.269-8.291a3.321 3.321 0 0 1 5.247 3.033v7.417c0 .9-.72.974-1.616.974s-1.627-.077-1.627-.974v-7.417a1.35 1.35 0 0 0 0-.365 1.737 1.737 0 0 0-.332.144l-14.313 8.258a4.671 4.671 0 0 0-2 3.476v7.361c-.005.896-.724.974-1.621.974z" class="cls-13"/>
                </g>
                <g id="Group_335" transform="translate(12 99)">
                    <path id="Path_473-2" d="M115.747 221.918a3.1 3.1 0 0 1-2.568-.111l-5.114-2.945a3.122 3.122 0 0 1-1.406-2.435v-42.475a2.889 2.889 0 0 1 .41-1.384l7.926 4.572a2.79 2.79 0 0 0-.421 1.395V221c-.001.808.553 1.173 1.173.918z" class="cls-11"/>
                    <path id="Path_474-2" d="M114.585 178.535V221c0 .9.62 1.262 1.406.808l49.97-28.848a3.122 3.122 0 0 0 1.406-2.435V148.06c0-.9-.631-1.262-1.406-.819L115.99 176.1a3.077 3.077 0 0 0-1.405 2.435z" class="cls-12"/>
                    <path id="Path_475-2" d="M114.585 192.14l52.781-30.475v1.528l-52.792 30.475z" class="cls-11"/>
                    <path id="Path_476-2" d="M137.012 177.672l7.915-4.572v6.088l-7.915 4.572z" class="cls-13"/>
                    <path id="Path_478-2" d="M144.927 173.1l-1.317-.764-7.915 4.572 1.317.764z" class="cls-13"/>
                    <path id="Path_480-2" d="M135.695 176.908V183l1.317.764v-6.088z" class="cls-13"/>
                    <path id="Path_481-2" d="M126.54 165.495c-.9 0-1.627-.077-1.627-.974v-7.328a7.815 7.815 0 0 1 3.62-6.288l14.269-8.291a3.321 3.321 0 0 1 5.247 3.033v7.417c0 .9-.72.974-1.616.974s-1.627-.077-1.627-.974v-7.417a1.35 1.35 0 0 0 0-.365 1.737 1.737 0 0 0-.332.144l-14.313 8.258a4.671 4.671 0 0 0-2 3.476v7.361c-.005.896-.724.974-1.621.974z" class="cls-13"/>
                </g>
                <path id="Path_482" d="M174.451 120.374l42.066-24.265a1.018 1.018 0 0 1 .963-.089l2.214 1-1.827 53.38a2.989 2.989 0 0 1-1.362 2.358L175.79 178.1s-2.015-.886-2.269-1.018a.985.985 0 0 1-.41-.9v-53.439a3.033 3.033 0 0 1 1.339-2.369z" class="cls-8"/>
                <path id="Path_483" d="M176.709 121.393l42.066-24.265c.753-.432 1.362-.077 1.362.786v53.5a3.011 3.011 0 0 1-1.362 2.358l-42.066 24.221c-.753.432-1.373.077-1.373-.786V123.75a3.022 3.022 0 0 1 1.373-2.358z" class="cls-14"/>
                <g id="Group_304" clip-path="url(#clip-path-2)">
                    <g id="freepik--Character--inject-3">
                        <path id="Path_484" d="M209.221 176.554c-4.716-20.679-10.107-24.354-5.07-28.638 5.181-1.982 7.86.841 8.756 6.908.443 2.956 1.406 15.365 2.613 19.992 1.052 4.074 2.48 9.122 4.063 12.033a1.716 1.716 0 0 0 1.3.908c1.472.21 1.915 1.041 3.111 1.649.941.476 1.638.354 1.594.686a1.838 1.838 0 0 1-1.483 1.472 5.192 5.192 0 0 1-1.76-.122 9.653 9.653 0 0 0 2.568 2.358c2.3 1.494 2.679 2.956-.974 4.9-2.3 1.218-4.428.631-7.3-4.029a37.637 37.637 0 0 1-2.867-5.391 105.157 105.157 0 0 1-4.55-12.73z" class="cls-16"/>
                        <path id="Path_485" d="M195.815 150.407c-5.125 1.782-5.48 4.738-6.764 8.2a11.9 11.9 0 0 0-.244 7.694l3.576 10.981a72.384 72.384 0 0 0-3.62 10.04c8.967 3.376 20.158-2.657 22.859-7.594.111-.93-.587-7.749-1.007-12.177 1.572-4.993 1.993-8 1.328-10.849-1.24-5.28-6.033-9.454-8.159-8.69z" class="cls-12"/>
                        <path id="Path_486" d="M201.915 143.344l-3.786 1.029c-5.258 1.439-9.553-2.325-9.575-8.4 0-7.273 5.07-14.579 11.38-16.295 6.31-1.727 11.446 2.779 11.479 10.063.022 6.076-4.229 12.164-9.498 13.603z" class="cls-11"/>
                        <path id="Path_487" d="M196.978 117.341c1.627 2.347-.1 4.7-2.5 7.229s-4.572 4.262-6.2 1.926-.742-5.668 1.66-8.192 5.401-3.277 7.04-.963z" class="cls-11"/>
                        <path id="Path_488" d="M191.089 127.525l-2.413 2.712a2 2 0 0 1 .255-2.491 1.406 1.406 0 0 1 2.159-.221z" class="cls-11"/>
                        <path id="Path_489" d="M207.007 123.662c1.207.487 2.712 3.587 2.59 10.959-.1 6.266-1.838 8.269-2.712 8.956s-2.579.875-4.218 1.007l.089 3.764s2.779 1.871 2.635 3.62-3.841 3.542-5.978 2.446a17.8 17.8 0 0 1-3.841-2.79.321.321 0 0 1-.089-.232v-9.432a1.749 1.749 0 0 1-2.612.144 3.531 3.531 0 0 1-.775-4.7c1.052-1.528 3-1.727 3.764-.166a15.387 15.387 0 0 0 6.111-3.775 15.83 15.83 0 0 0 5.037-9.8z" class="cls-16"/>
                        <path id="Path_490" d="M203.564 134.71a1.041 1.041 0 0 1-.642 1.018c-.376.122-.7-.133-.708-.576a1.107 1.107 0 0 1 .631-1.03c.376-.122.697.145.719.588z" class="cls-11"/>
                        <path id="Path_491" d="M203.764 139.935l1.572.144a1.107 1.107 0 0 1-1.018.93c-.433-.034-.632-.521-.554-1.074z" class="cls-17"/>
                        <path id="Path_492" d="M209.11 130.791l-1.373-.731c.255-.52.764-.775 1.107-.576a.985.985 0 0 1 .266 1.306z" class="cls-11"/>
                        <path id="Path_493" d="M208.8 132.706a1.107 1.107 0 0 1-.631 1.03c-.376.122-.7-.144-.72-.587a1.041 1.041 0 0 1 .642-1.018c.377-.122.698.132.709.575z" class="cls-11"/>
                        <path id="Path_494" d="M205.756 132.706l-.022 5.114 2.136-1.362z" class="cls-17"/>
                        <path id="Path_495" d="M202.657 144.584c-1.738.21-5.314 0-5.878-1.472a3.144 3.144 0 0 0 1.262 1.738c1.107.764 4.638.985 4.638.985z" class="cls-17"/>
                        <path id="Path_496" d="M198.151 185.974c-2.945 0-4.8-2.956-4.029-6.531a1.038 1.038 0 0 1 .089-.354c.576-1.76 1.815-1.882 1.815-1.882a4.506 4.506 0 0 1-1.982-3.454l-1.428-7.018a10.4 10.4 0 0 1 .277-3.7l-3.6-3.852-.664.72a11.568 11.568 0 0 0 .144 6.4l3.576 10.981a67.007 67.007 0 0 0-3.62 10.04c6.642 2.491 14.391-.133 19.151-3.664a24.177 24.177 0 0 1-9.729 2.314z" class="cls-9"/>
                    </g>
                    <path id="Path_497" d="M179.587 184.458c3.985-19.926 6.5-28.45 10.871-31.472a14.535 14.535 0 0 1 2.956-1.472c.609.232.664 1.539.786 2.391a21.033 21.033 0 0 1-2.269 11.38s-5.823 15.719-6.753 21.033a89.567 89.567 0 0 0-1.672 14.2 2.3 2.3 0 0 0 .642 1.672c1.107 1.041 1.107 2.114 1.749 3.4.542 1.007 1.107 1.284.963 1.583a1.351 1.351 0 0 1-1.738.62 4.8 4.8 0 0 1-1.328-1.107 14.07 14.07 0 0 0 1.052 3.8c1.2 2.779.9 4.428-2.734 4.317-2.28-.089-3.708-1.893-4.052-8.125a57.566 57.566 0 0 1 0-6.974 140.673 140.673 0 0 1 1.527-15.246z" class="cls-16"/>
                </g>
                <path id="Path_499" d="M177.738 183.229l40.062-23.136c1.328-.764 2.4-.221 2.4 1.218a5.148 5.148 0 0 1-2.4 3.985l-40.062 23.125c-1.328.764-2.4.221-2.4-1.207a5.136 5.136 0 0 1 2.4-3.985z" class="cls-12"/>
                <path id="Path_500" d="M227.143 92.4l40.073-23.136c1.317-.764 2.391-.221 2.391 1.207a5.148 5.148 0 0 1-2.391 3.985l-40.073 23.136c-1.317.764-2.391.221-2.391-1.218a5.147 5.147 0 0 1 2.391-3.974z" class="cls-12"/>
                <path id="Path_501" d="M225.892 103.5l51.564-29.767c.664-.387 1.207-.111 1.207.6a2.568 2.568 0 0 1-1.207 1.993l-51.508 29.767c-.664.387-1.207.122-1.229-.6a2.546 2.546 0 0 1 1.173-1.993z" class="cls-14"/>
                <path id="Path_502" d="M225.892 108.684l51.564-29.767c.664-.387 1.207-.111 1.207.609a2.579 2.579 0 0 1-1.207 1.993l-51.508 29.767c-.664.376-1.207.111-1.229-.609a2.546 2.546 0 0 1 1.173-1.993z" class="cls-14"/>
                <path id="Path_503" d="M225.892 113.876l51.564-29.745c.664-.376 1.207-.111 1.207.609a2.579 2.579 0 0 1-1.207 1.993L225.948 116.5c-.664.387-1.207.111-1.229-.609a2.524 2.524 0 0 1 1.173-2.015z" class="cls-14"/>
                <path id="Path_504" d="M225.892 119.057l51.564-29.767c.664-.387 1.207-.111 1.207.6a2.568 2.568 0 0 1-1.207 1.993l-51.508 29.767c-.664.387-1.207.111-1.229-.6a2.524 2.524 0 0 1 1.173-1.993z" class="cls-14"/>
                <path id="Path_505" d="M225.892 124.237l51.564-29.767c.664-.387 1.207-.111 1.207.609a2.557 2.557 0 0 1-1.207 1.982l-51.508 29.778c-.664.376-1.207.111-1.229-.609a2.546 2.546 0 0 1 1.173-1.993z" class="cls-14"/>
                <path id="Path_506" d="M227.143 133.758l4.151-2.391c1.328-.775 2.4-.155 2.4 1.384v4.849a5.291 5.291 0 0 1-2.4 4.151l-4.2 2.424c-1.328.764-2.391.144-2.391-1.384v-4.882a5.325 5.325 0 0 1 2.435-4.151z" class="cls-13"/>
                <path id="Path_507" d="M235.257 130.37c0 .72.531.985 1.2.609l11.07-6.409a2.612 2.612 0 0 0 1.207-1.982c0-.72-.531-.985-1.2-.609l-11.07 6.4a2.568 2.568 0 0 0-1.207 1.991z" class="cls-12"/>
                <path id="Path_508" d="M235.257 134.267c0 .72.531.985 1.2.609l11.07-6.409a2.59 2.59 0 0 0 1.207-1.982c0-.72-.531-.985-1.2-.609l-11.07 6.4a2.568 2.568 0 0 0-1.207 1.991z" class="cls-12"/>
                <path id="Path_509" d="M235.257 138.163c0 .72.531 1 1.2.609l11.07-6.4a2.613 2.613 0 0 0 1.207-1.993c0-.708-.531-.985-1.2-.6l-11.07 6.4a2.546 2.546 0 0 0-1.207 1.982z" class="cls-12"/>
                <path id="Path_510" d="M227.143 149.333l4.151-2.391c1.328-.764 2.4-.144 2.4 1.384v4.849a5.291 5.291 0 0 1-2.4 4.151l-4.2 2.424c-1.328.764-2.391.144-2.391-1.384v-4.882a5.325 5.325 0 0 1 2.435-4.151z" class="cls-13"/>
                <path id="Path_511" d="M235.257 145.946c0 .72.531.985 1.2.609l11.07-6.409a2.59 2.59 0 0 0 1.207-1.982c0-.72-.531-.985-1.2-.609l-11.07 6.4a2.568 2.568 0 0 0-1.207 1.991z" class="cls-12"/>
                <path id="Path_512" d="M235.257 149.842c0 .72.531 1 1.2.609l11.07-6.409a2.579 2.579 0 0 0 1.207-1.982c0-.72-.531-.985-1.2-.6l-11.07 6.4a2.546 2.546 0 0 0-1.207 1.982z" class="cls-12"/>
                <path id="Path_513" d="M235.257 153.75c0 .708.531.985 1.2.6l11.07-6.4a2.613 2.613 0 0 0 1.207-1.993c0-.708-.531-.985-1.2-.6l-11.07 6.4a2.557 2.557 0 0 0-1.207 1.993z" class="cls-12"/>
                <path id="Path_514" d="M257.054 116.821l4.151-2.4c1.328-.764 2.391-.144 2.391 1.384v4.86a5.258 5.258 0 0 1-2.391 4.151l-4.2 2.435c-1.328.764-2.391.144-2.391-1.384v-4.882a5.358 5.358 0 0 1 2.44-4.164z" class="cls-13"/>
                <path id="Path_515" d="M265.157 113.433c0 .708.542.985 1.207.6l11.07-6.4a2.613 2.613 0 0 0 1.207-1.993c0-.708-.531-.985-1.2-.6l-11.07 6.4a2.568 2.568 0 0 0-1.214 1.993z" class="cls-12"/>
                <path id="Path_516" d="M265.157 117.341c0 .72.542.985 1.207.609l11.07-6.409a2.59 2.59 0 0 0 1.229-1.948c0-.72-.531-.985-1.2-.609l-11.07 6.4a2.579 2.579 0 0 0-1.24 1.959z" class="cls-12"/>
                <path id="Path_517" d="M265.157 121.226c0 .72.542 1 1.207.609l11.07-6.409a2.579 2.579 0 0 0 1.207-1.982c0-.72-.531-.985-1.2-.609l-11.07 6.409a2.546 2.546 0 0 0-1.214 1.982z" class="cls-12"/>
                <path id="Path_518" d="M257.054 132.4l4.151-2.4c1.328-.775 2.391-.155 2.391 1.384v4.849a5.28 5.28 0 0 1-2.391 4.151l-4.2 2.413c-1.328.764-2.391.144-2.391-1.384v-4.882a5.358 5.358 0 0 1 2.435-4.14z" class="cls-13"/>
                <path id="Path_519" d="M265.157 129.009c0 .72.542.985 1.207.609l11.07-6.409a2.612 2.612 0 0 0 1.207-1.982c0-.72-.531-.985-1.2-.609l-11.07 6.4a2.579 2.579 0 0 0-1.218 1.993z" class="cls-12"/>
                <path id="Path_520" d="M265.157 132.905c0 .72.542.985 1.207.609l11.07-6.409a2.59 2.59 0 0 0 1.207-1.982c0-.72-.531-.985-1.2-.609l-11.07 6.4a2.579 2.579 0 0 0-1.218 1.993z" class="cls-12"/>
                <path id="Path_521" d="M265.157 136.8c0 .72.542 1 1.207.609l11.07-6.4a2.613 2.613 0 0 0 1.207-1.993c0-.708-.531-.985-1.2-.6l-11.07 6.4a2.557 2.557 0 0 0-1.214 1.984z" class="cls-12"/>
                <path id="Path_522" d="M99.452 344.717l-4.107-2.369a2.424 2.424 0 0 1-1.107-2.214v-80.678a7.66 7.66 0 0 1 3.531-5.956l182.3-105.009a2.48 2.48 0 0 1 2.4-.266l4.1 2.358-3.077 80.5a7.682 7.682 0 0 1-3.476 6.011z" class="cls-6"/>
                <path id="Path_523" d="M98.411 261.836v80.622c0 2.214 1.55 3.111 3.465 2L284.175 239.5a7.671 7.671 0 0 0 3.465-6.011v-80.625c0-2.214-1.561-3.111-3.476-2L101.843 255.825a7.683 7.683 0 0 0-3.432 6.011z" class="cls-7"/>
                <path id="Path_524" d="M95.334 342.337l3.974 2.28a2.524 2.524 0 0 1-.9-2.214v-80.578a6.963 6.963 0 0 1 .908-3.221l-4.116-2.369a6.93 6.93 0 0 0-.908 3.221v80.633a2.4 2.4 0 0 0 1.041 2.214z" class="cls-8"/>
                <path id="Path_525" d="M174.451 222.317l42.066-24.265a1 1 0 0 1 .963-.1c.4.2 2.214 1.007 2.214 1.007l-1.849 53.434a3.011 3.011 0 0 1-1.362 2.358l-40.715 25.317s-2.015-.886-2.269-1.018a.952.952 0 0 1-.41-.886v-53.445a3.011 3.011 0 0 1 1.362-2.402z" class="cls-8"/>
                <path id="Path_526" d="M176.709 223.335l42.066-24.265c.753-.432 1.362-.089 1.362.786v53.5a3.011 3.011 0 0 1-1.362 2.358l-42.066 24.221c-.753.432-1.373.078-1.373-.786v-53.456a3 3 0 0 1 1.373-2.358z" class="cls-14"/>
                <g id="Group_305" clip-path="url(#clip-path-3)">
                    <g id="freepik--character-boy--inject-3">
                        <path id="Path_527" d="M206.066 245.94s3.321-1.029 6.055 3.321c1.871 2.945 8.413 14.147 8.413 14.147s12.708-6.742 13.428-7.616.675-2.679.775-3.642a10.76 10.76 0 0 0-.487-3.576c-.155-1.007 1.306-1.107 2.026.343.52 1.018.565 2.214 1.018 2.214a12.908 12.908 0 0 0 1.782-1.517c.786-.863 2.214-2.3 3.321-2.1a.919.919 0 0 1 .72.775 5.07 5.07 0 0 0 .41 1.716 3.089 3.089 0 0 1 .421.686 6.3 6.3 0 0 1 0 1.107c0 .531.565.753.631 1.273a9.128 9.128 0 0 1-.133 1.207c0 .255.089.487.089.742a2.524 2.524 0 0 1-.653 1.417 15.4 15.4 0 0 1-3.775 3.155c-1.162.753-2.69 1.428-4.007 2.148s-16.295 12.177-18.287 10.849-12-15.93-12-15.93c-2.337-6.479.253-10.719.253-10.719z" class="cls-19"/>
                        <path id="Path_528" d="M200.266 246.04a17.712 17.712 0 0 1 6.011-1.328 6.509 6.509 0 0 1 5.834 3.609c2.314 3.719 6.144 10.14 6.144 10.14a18.431 18.431 0 0 1-7.439 7.948l-7.052-10.638z" class="cls-12"/>
                        <g id="freepik--character-boy--inject-3-2">
                            <path id="Path_529" d="M188.72 252.471a7.827 7.827 0 0 0-2.579 3.786 18.476 18.476 0 0 0-.786 5.535v12.1l-.144 22.882c7.671 2.612 17.424.31 25.6-8.79 0 0-.454-29.269-.454-34.073v-.664c-.3-6.786-6.155-9.963-11.922-6.642l-4.849 2.745-4.86 3.155z" class="cls-13"/>
                            <path id="Path_530" d="M193.967 227.586c0 5.159 3.62 8.369 8.092 7.173s8.092-6.354 8.092-11.513-3.863-5.159-8.325-3.963-7.859 3.144-7.859 8.303z" class="cls-11"/>
                            <path id="Path_531" d="M189.749 235.789a70.693 70.693 0 0 0 1.672 7.085 1.838 1.838 0 0 0 1.461.974l-.077-4.528z" class="cls-11"/>
                            <path id="Path_532" d="M191.244 226.081a3.321 3.321 0 0 0-2.28 1.539c-.985 1.428-.432 4.9.786 8.125l2.214-.3z" class="cls-11"/>
                            <path id="Path_533" d="M192.616 235.269c-.443.432-1.107-.4-1.638-.919s-2.369-.952-3.321 1.483.8 4.993 2.214 5.125a2.369 2.369 0 0 0 2.834-1.683l.078 10.494c4.129 4.428 11.358-.786 8.1-2.723v-3.111a14.182 14.182 0 0 0 3.321-.7c1.8-.808 2.945-2.756 3.5-5.159.875-3.874 1.207-6.9.465-13.826-.819-7.605-8.7-5.535-12.963-1.339s-2.59 12.358-2.59 12.358z" class="cls-19"/>
                            <path id="Path_534" d="M192.616 236.143c-.221.066-1.107-1.362-1.638-1.793-.786-.609.221-8.269.221-8.269-.9-1.97.753-4.948 2.491-6.166a10.041 10.041 0 0 1 4.1-1.506c1.251-.232 2.48-.4 3.719-.509a35.033 35.033 0 0 0 4.494-.542 10.1 10.1 0 0 0 3.553-1.528c.365-.255.731 0 .609.476a5.855 5.855 0 0 1-.421 1.185 10.961 10.961 0 0 1-1.2 2.1 16.058 16.058 0 0 1-1.738 1.926c-3.321 3.144-7.539 4.007-11.236 4.428-.841.089-1.018 1.107-1.461 3.742-.386 2.349-.685 6.235-1.493 6.456z" class="cls-11"/>
                            <path id="Path_535" d="M191.244 226.656l-2.712-.952a1.8 1.8 0 0 1 2.059-1.339c.752.254 1.04 1.284.653 2.291z" class="cls-11"/>
                            <path id="Path_536" d="M200.974 243.936a24.1 24.1 0 0 1-5.446-.343 3.5 3.5 0 0 1-1.948-1.716 6 6 0 0 0 1.107 2.336c1.041 1.251 6.288.963 6.288.963z" class="cls-20"/>
                            <path id="Path_537" d="M200.011 232.136a1.262 1.262 0 0 1-.808 1.184c-.454.111-.808-.221-.808-.764a1.24 1.24 0 0 1 .863-1.2c.388-.095.753.237.753.78z" class="cls-11"/>
                            <path id="Path_538" d="M198.716 228.616l-1.738 1.561a1.505 1.505 0 0 1 .41-1.694.8.8 0 0 1 1.328.133z" class="cls-11"/>
                            <path id="Path_539" d="M200.609 238.423l1.849.3a1.273 1.273 0 0 1-1.251 1.052c-.507-.09-.775-.665-.598-1.352z" class="cls-20"/>
                            <path id="Path_540" d="M207.428 227.1l-1.572-.985c.321-.609.93-.875 1.362-.609a1.218 1.218 0 0 1 .21 1.594z" class="cls-11"/>
                            <path id="Path_541" d="M206.741 230.066a1.251 1.251 0 0 1-.819 1.184c-.443.111-.808-.221-.808-.764a1.262 1.262 0 0 1 .808-1.184c.454-.155.819.221.819.764z" class="cls-11"/>
                            <path id="Path_542" d="M202.734 230.387l.1 5.635 2.9-1.517z" class="cls-20"/>
                        </g>
                    </g>
                    <path id="Path_543" d="M177.307 287.065c1.694-23.313 5.147-31.671 10.826-34.117 1.959 1.461 2.435 8.313.387 13.516 0 0-4.428 15.5-4.66 20.823a85.383 85.383 0 0 0 .9 14.69 2.081 2.081 0 0 0 .9 1.461c1.24.808 1.107 1.982 2.048 3.089.7.875 1.351 1.03 1.218 1.351a1.561 1.561 0 0 1-1.738.93 4.682 4.682 0 0 1-1.517-.83 12.786 12.786 0 0 0 1.594 3.476c1.616 2.458 1.539 4.129-2.214 4.683-2.38.354-4.107-1.107-5.3-7.074-.343-1.716-1.107-4.793-1.483-7.018a67.979 67.979 0 0 1-.952-14.978z" class="cls-19"/>
                    <path id="Path_544" d="M189.749 251.8a13.362 13.362 0 0 0-6.232 4.838c-2.081 3.387-4.074 8.856-5.469 18.509 0 0 2.612 3.587 9.443.609 0 0 2.967-12.343 3.232-17.225.288-5.331-.974-6.731-.974-6.731z" class="cls-12"/>
                </g>
                <path id="Path_546" d="M177.738 285.172l40.062-23.136c1.328-.764 2.4-.221 2.4 1.218a5.136 5.136 0 0 1-2.4 3.974l-40.062 23.136c-1.328.764-2.4.221-2.4-1.218a5.137 5.137 0 0 1 2.4-3.974z" class="cls-12"/>
                <path id="Path_547" d="M227.143 194.332l40.073-23.125c1.317-.764 2.391-.221 2.391 1.207a5.148 5.148 0 0 1-2.391 3.985l-40.073 23.125c-1.317.764-2.391.221-2.391-1.207a5.148 5.148 0 0 1 2.391-3.985z" class="cls-12"/>
                <path id="Path_548" d="M225.892 205.446l51.564-29.778c.664-.376 1.207-.111 1.207.609a2.579 2.579 0 0 1-1.207 1.993l-51.508 29.767c-.664.387-1.207.111-1.229-.609a2.524 2.524 0 0 1 1.173-1.982z" class="cls-14"/>
                <path id="Path_549" d="M225.892 210.627l51.564-29.767c.664-.387 1.207-.111 1.207.6a2.568 2.568 0 0 1-1.207 1.993l-51.508 29.767c-.664.387-1.207.122-1.229-.6a2.524 2.524 0 0 1 1.173-1.993z" class="cls-14"/>
                <path id="Path_550" d="M225.892 215.863l51.564-29.763c.664-.387 1.207-.111 1.207.609a2.579 2.579 0 0 1-1.207 1.993l-51.508 29.712c-.664.376-1.207.111-1.229-.609a2.546 2.546 0 0 1 1.173-1.937z" class="cls-14"/>
                <path id="Path_551" d="M225.892 221l51.564-29.778c.664-.376 1.207-.111 1.207.609a2.579 2.579 0 0 1-1.207 1.993l-51.508 29.789c-.664.387-1.207.111-1.229-.609a2.524 2.524 0 0 1 1.173-2.004z" class="cls-14"/>
                <path id="Path_552" d="M225.892 226.18l51.564-29.767c.664-.387 1.207-.111 1.207.6a2.568 2.568 0 0 1-1.207 1.987l-51.508 29.767c-.664.387-1.207.111-1.229-.6a2.524 2.524 0 0 1 1.173-1.987z" class="cls-14"/>
                <path id="Path_553" d="M227.143 235.7l4.151-2.4c1.328-.764 2.4-.144 2.4 1.384v4.849a5.291 5.291 0 0 1-2.4 4.151l-4.2 2.424c-1.328.764-2.391.144-2.391-1.384v-4.871a5.3 5.3 0 0 1 2.44-4.153z" class="cls-13"/>
                <path id="Path_554" d="M235.257 232.3c0 .72.531 1 1.2.609l11.07-6.4a2.613 2.613 0 0 0 1.207-1.993c0-.708-.531-.985-1.2-.6l-11.07 6.4a2.546 2.546 0 0 0-1.207 1.982z" class="cls-12"/>
                <path id="Path_555" d="M235.257 236.209c0 .72.531.985 1.2.609l11.07-6.409a2.613 2.613 0 0 0 1.207-1.982c0-.72-.531-.985-1.2-.609l-11.07 6.4a2.568 2.568 0 0 0-1.207 1.991z" class="cls-12"/>
                <path id="Path_556" d="M235.257 240.106c0 .72.531.985 1.2.609l11.07-6.409a2.59 2.59 0 0 0 1.207-1.982c0-.72-.531-.985-1.2-.609l-11.07 6.4a2.568 2.568 0 0 0-1.207 1.991z" class="cls-12"/>
                <path id="Path_557" d="M227.143 251.287l4.151-2.4c1.328-.764 2.4-.144 2.4 1.384v4.849a5.269 5.269 0 0 1-2.4 4.151l-4.2 2.435c-1.328.764-2.391.144-2.391-1.384v-4.882a5.325 5.325 0 0 1 2.435-4.151z" class="cls-13"/>
                <path id="Path_558" d="M235.257 247.888c0 .708.531.985 1.2.6l11.07-6.4a2.613 2.613 0 0 0 1.207-1.993c0-.708-.531-.985-1.2-.6l-11.07 6.4a2.557 2.557 0 0 0-1.207 1.993z" class="cls-12"/>
                <path id="Path_559" d="M235.257 251.785c0 .72.531.985 1.2.609l11.07-6.409A2.59 2.59 0 0 0 248.73 244c0-.72-.531-.985-1.2-.609l-11.07 6.4a2.568 2.568 0 0 0-1.203 1.994z" class="cls-12"/>
                <path id="Path_560" d="M235.257 255.715c0 .72.531 1 1.2.609l11.07-6.409a2.579 2.579 0 0 0 1.207-1.982c0-.72-.531-.985-1.2-.6l-11.07 6.4a2.546 2.546 0 0 0-1.207 1.982z" class="cls-12"/>
                <path id="Path_561" d="M257.054 218.752l4.151-2.391c1.328-.764 2.391-.144 2.391 1.384v4.849a5.28 5.28 0 0 1-2.391 4.151l-4.2 2.4c-1.328.764-2.391.144-2.391-1.384v-4.882a5.358 5.358 0 0 1 2.44-4.127z" class="cls-13"/>
                <path id="Path_562" d="M265.157 215.365c0 .72.542 1 1.207.609l11.07-6.4a2.613 2.613 0 0 0 1.207-1.993c0-.72-.531-.985-1.2-.6l-11.07 6.4a2.557 2.557 0 0 0-1.218 1.981z" class="cls-12"/>
                <path id="Path_563" d="M265.157 219.273c0 .708.542.985 1.207.6l11.07-6.4a2.613 2.613 0 0 0 1.207-1.993c0-.708-.531-.985-1.2-.6l-11.07 6.4a2.568 2.568 0 0 0-1.214 1.993z" class="cls-12"/>
                <path id="Path_564" d="M265.157 223.169c0 .72.542.985 1.207.609l11.07-6.409a2.59 2.59 0 0 0 1.207-1.982c0-.72-.531-.985-1.2-.609l-11.07 6.4a2.579 2.579 0 0 0-1.218 1.993z" class="cls-12"/>
                <path id="Path_565" d="M257.054 234.339l4.151-2.4c1.328-.764 2.391-.144 2.391 1.384v4.849a5.28 5.28 0 0 1-2.347 4.151l-4.2 2.424c-1.328.764-2.391.144-2.391-1.384v-4.873a5.358 5.358 0 0 1 2.396-4.151z" class="cls-13"/>
                <path id="Path_566" d="M265.157 230.951c0 .708.542.985 1.207.6l11.07-6.4a2.613 2.613 0 0 0 1.207-1.993c0-.708-.531-.985-1.2-.6l-11.07 6.4a2.568 2.568 0 0 0-1.218 1.993z" class="cls-12"/>
                <path id="Path_567" d="M265.157 234.848c0 .72.542.985 1.207.609l11.07-6.409a2.59 2.59 0 0 0 1.207-1.982c0-.72-.531-.985-1.2-.609l-11.07 6.4a2.579 2.579 0 0 0-1.218 1.993z" class="cls-12"/>
                <path id="Path_568" d="M265.157 238.744c0 .72.542.985 1.207.609l11.07-6.409a2.59 2.59 0 0 0 1.207-1.982c0-.72-.531-.985-1.2-.609l-11.07 6.4a2.579 2.579 0 0 0-1.218 1.993z" class="cls-12"/>
                <path id="Path_569" d="M138.983 259.312l.089.055-.111-.066-.21-.111z" class="cls-21"/>
                <path id="Path_570" d="M137.422 258.128a.21.21 0 0 0 0 .166.21.21 0 0 1 0-.166l.31-1.107z" class="cls-10"/>
                <path id="Path_571" d="M137.422 258.128a.21.21 0 0 0 0 .166.21.21 0 0 1 0-.166l.31-1.107z" class="cls-22"/>
                <path id="Line_18" d="M0 0L6 3.476" class="cls-2" transform="translate(162.894 239.431)"/>
                <path id="Path_590" d="M142.89 251.774l-.089.1z" class="cls-21"/>
                <path id="Line_19" d="M0.077 0.033L0 0" class="cls-2" transform="translate(162.882 239.431)"/>
                <path id="Path_595" d="M107.71 302.651l.122.077-.155-.089-.277-.166z" class="cls-21"/>
                <path id="Path_596" d="M105.563 301.013a.454.454 0 0 0 0 .244.31.31 0 0 1 0-.244l.432-1.45z" class="cls-10"/>
                <path id="Path_597" d="M105.563 301.013a.454.454 0 0 0 0 .244.31.31 0 0 1 0-.244l.432-1.45z" class="cls-22"/>
                <path id="Line_20" d="M0 0L8.258 4.782" class="cls-2" transform="translate(138.706 274.257)"/>
                <path id="Path_616" d="M113.079 292.245l-.122.133z" class="cls-21"/>
                <path id="Line_21" d="M0.1 0.055L0 0" class="cls-2" transform="translate(138.706 274.257)"/>
                <path id="Path_621" d="M99.452 446.715l-4.107-2.369a2.424 2.424 0 0 1-1.107-2.214v-80.667a7.672 7.672 0 0 1 3.465-6.011L280.068 250.5a2.458 2.458 0 0 1 2.4-.266l4.1 2.358-3.079 80.508a7.638 7.638 0 0 1-3.476 6z" class="cls-6"/>
                <path id="Path_622" d="M98.411 363.834v80.633c0 2.214 1.55 3.1 3.465 2l182.31-104.965a7.671 7.671 0 0 0 3.465-6.011v-80.618c0-2.214-1.561-3.111-3.476-2L101.843 357.834a7.638 7.638 0 0 0-3.432 6z" class="cls-7"/>
                <path id="Path_623" d="M95.334 444.335l3.974 2.291a2.535 2.535 0 0 1-.9-2.214v-80.589a7 7 0 0 1 .908-3.221l-4.116-2.369a6.974 6.974 0 0 0-.908 3.232v80.622a2.4 2.4 0 0 0 1.041 2.214z" class="cls-8"/>
                <path id="Path_624" d="M113.168 425.748l-5.1-2.945a3.122 3.122 0 0 1-1.406-2.435V377.9a3.1 3.1 0 0 1 1.406-2.435l49.981-28.859a3.144 3.144 0 0 1 2.812 0l5.1 2.956a3.1 3.1 0 0 1 1.405 2.438v42.464a3.122 3.122 0 0 1-1.406 2.435l-49.97 28.849a3.1 3.1 0 0 1-2.823 0z" class="cls-9"/>
                <path id="Path_625" d="M115.747 425.859a3.1 3.1 0 0 1-2.568-.111l-5.114-2.945a3.122 3.122 0 0 1-1.406-2.435V377.9a2.812 2.812 0 0 1 .41-1.384l7.926 4.561a2.79 2.79 0 0 0-.421 1.395v42.468c-.001.808.553 1.174 1.173.919z" class="cls-11"/>
                <path id="Path_626" d="M114.585 382.476v42.464c0 .9.62 1.262 1.406.808L165.96 396.9a3.122 3.122 0 0 0 1.406-2.435v-42.442c0-.9-.631-1.262-1.406-.819l-49.97 28.859a3.077 3.077 0 0 0-1.406 2.413z" class="cls-12"/>
                <path id="Path_627" d="M114.585 396.092l52.781-30.487v1.528l-52.792 30.475z" class="cls-11"/>
                <path id="Path_628" d="M137.012 381.613l7.915-4.572v6.1l-7.915 4.561z" class="cls-13"/>
                <path id="Path_629" d="M144.927 377.041l-1.317-.764-7.915 4.572 1.317.764z" class="cls-10"/>
                <path id="Path_630" d="M144.927 377.041l-1.317-.764-7.915 4.572 1.317.764z" class="cls-22"/>
                <path id="Path_631" d="M135.695 380.849v6.1l1.317.753v-6.088z" class="cls-10"/>
                <path id="Path_632" d="M135.695 380.849v6.1l1.317.753v-6.088z" opacity="0.1"/>
                <path id="Path_633" d="M126.54 369.436c-.9 0-1.627-.077-1.627-.974V361.1a7.815 7.815 0 0 1 3.62-6.288l14.269-8.258a3.321 3.321 0 0 1 5.247 3.033V357c0 .9-.72.974-1.616.974s-1.627-.078-1.627-.974v-7.417a1.35 1.35 0 0 0 0-.365 1.737 1.737 0 0 0-.332.144l-14.313 8.269a4.638 4.638 0 0 0-2 3.465v7.361c-.005.901-.724.979-1.621.979z" class="cls-13"/>
                <path id="Path_634" d="M174.451 324.348l42.066-24.254a1 1 0 0 1 .963-.1l2.214 1-1.827 53.379a2.989 2.989 0 0 1-1.362 2.358l-40.715 25.35s-2.015-.886-2.269-1.018a.985.985 0 0 1-.41-.9v-53.479a3.033 3.033 0 0 1 1.339-2.336z" class="cls-8"/>
                <path id="Path_635" d="M176.709 325.333l42.066-24.265c.753-.432 1.362-.077 1.362.786v53.49a2.989 2.989 0 0 1-1.362 2.358l-42.066 24.221c-.753.432-1.373.077-1.373-.786v-53.468a3.022 3.022 0 0 1 1.373-2.336z" class="cls-14"/>
                <g id="Group_307" clip-path="url(#clip-path-4)">
                    <g id="freepik--character--inject-3-2">
                        <path id="Path_636" d="M210.151 378.967c-5.07-22.217-11.17-26.247-5.756-30.874 6.31-.963 8.745 1.018 9.708 7.528.476 3.188 1.506 16.505 2.8 21.487 1.107 4.373 2.668 9.8 4.373 12.919a1.827 1.827 0 0 0 1.395.974c1.583.232 2.048 1.107 3.321 1.782 1.007.509 1.749.376 1.7.742a1.981 1.981 0 0 1-1.592 1.575 5.69 5.69 0 0 1-1.893-.122 10.639 10.639 0 0 0 2.756 2.524c2.48 1.605 2.889 3.177-1.041 5.269-2.469 1.317-4.782.675-7.837-4.317a40.96 40.96 0 0 1-3.077-5.8c-2.101-5.418-4.049-10.101-4.857-13.687z" class="cls-19"/>
                    </g>
                    <path id="Path_637" d="M213.317 343.222l-16.6 4.428c-3.941 1.052-7.129-1.771-7.129-6.321v-6.4c0-7.284 5.114-14.557 11.424-16.251l.852-.221c6.3-1.694 11.413 2.834 11.413 10.118v14.634z" class="cls-10"/>
                    <g id="Group_306" opacity="0.5">
                        <path id="Path_638" d="M213.317 343.222l-16.6 4.428c-3.941 1.052-7.129-1.771-7.129-6.321v-6.4c0-7.284 5.114-14.557 11.424-16.251l.852-.221c6.3-1.694 11.413 2.834 11.413 10.118v14.634z"/>
                    </g>
                    <path id="Path_639" d="M193.557 321.713c-.62-.62-1.672-.387-2.347.509l1.251 1.24a1.472 1.472 0 0 0-.863.166 2.557 2.557 0 0 0-1.273 2.624l3.243-1.672a1.687 1.687 0 0 0-.066-.221 2.137 2.137 0 0 0 .055-2.646z" class="cls-10"/>
                    <path id="Path_640" d="M193.557 321.713c-.62-.62-1.672-.387-2.347.509l1.251 1.24a1.472 1.472 0 0 0-.863.166 2.557 2.557 0 0 0-1.273 2.624l3.243-1.672a1.687 1.687 0 0 0-.066-.221 2.137 2.137 0 0 0 .055-2.646z" opacity="0.5"/>
                    <path id="Path_641" d="M196.812 350.373s-6.908 1.627-7.749 2.292c5 5.369.919 16.693.919 16.693l2.779 9.675a55.847 55.847 0 0 0-5.679 13.051c-1.672 5.535-2.723 9.631-4 26.191 6.564 5.225 28.45-.5 34.018-10.406 0 0-1.7-10.86-3.93-20.933-1.616-7.361-3.21-11.336-2.812-13.992 2.934-11.214 3.155-14 2.646-16.2-1.472-6.144-7.251-9.022-8.679-8.646z" class="cls-9"/>
                    <path id="Path_642" d="M208.856 322.521c1.251.52 2.8 3.731 2.646 11.391-.122 6.5-1.937 8.568-2.845 9.277s-2.668.9-4.428 1.018v3.874s2.358 2.535 2.214 4.35-3.4 3.111-5.612 1.97a13.594 13.594 0 0 1-4.063-4.029v-8.922a1.815 1.815 0 0 1-2.712.133 3.675 3.675 0 0 1-.786-4.893c1.107-1.572 3.122-1.76 3.9-.144a11.634 11.634 0 0 1 4.882-5.834c3.638-2.29 5.564-4.349 6.804-8.191z" class="cls-19"/>
                    <path id="Path_643" d="M205.258 333.968a1.107 1.107 0 0 1-.664 1.052c-.387.133-.72-.144-.742-.6a1.107 1.107 0 0 1 .675-1.107c.388-.113.72.187.731.655z" class="cls-11"/>
                    <path id="Path_644" d="M205.446 339.392l1.638.155a1.107 1.107 0 0 1-1.107.963c-.409-.044-.664-.542-.531-1.118z" class="cls-20"/>
                    <path id="Path_645" d="M211.025 329.883l-1.417-.753c.255-.542.786-.808 1.173-.6a1.007 1.007 0 0 1 .244 1.353z" class="cls-11"/>
                    <path id="Path_646" d="M203.221 332.617l1.417-1.517c-.255-.4-.786-.376-1.184 0a1.284 1.284 0 0 0-.232 1.517z" class="cls-11"/>
                    <path id="Path_647" d="M210.7 331.92a1.107 1.107 0 0 1-.675 1.107c-.387.122-.72-.144-.731-.609a1.107 1.107 0 0 1 .664-1.107.586.586 0 0 1 .742.609z" class="cls-11"/>
                    <path id="Path_648" d="M207.383 332.34l.111 4.86 2.225-1.395z" class="cls-20"/>
                    <path id="Path_649" d="M204.284 344.207c-1.8.21-5.535 0-6.077-1.561a3.188 3.188 0 0 0 1.3 1.815c1.107.8 4.782 1.041 4.782 1.041z" class="cls-20"/>
                    <path id="Path_650" d="M191.41 374.362l5.059 6.432-3.708-1.76z" class="cls-11"/>
                    <path id="Path_651" d="M177.118 387.369c4.284-21.354 7.24-31.439 11.922-34.7 2.358.232 3.066 3.321 3.321 5.136a20.3 20.3 0 0 1-2.391 11.557s-5.834 14.3-6.83 19.926a97.625 97.625 0 0 0-1.815 15.254 2.557 2.557 0 0 0 .7 1.8c1.107 1.107 1.107 2.269 1.893 3.653.576 1.107 1.207 1.384 1.029 1.7a1.472 1.472 0 0 1-1.882.664 5.08 5.08 0 0 1-1.417-1.2 14.978 14.978 0 0 0 1.107 4.074c1.284 3 .963 4.782-2.934 4.638-2.446-.089-3.985-2.026-4.35-8.712a59.421 59.421 0 0 1-.066-7.505 161.32 161.32 0 0 1 1.716-16.295z" class="cls-19"/>
                </g>
                <path id="Path_653" d="M177.738 387.17l40.062-23.125c1.328-.764 2.4-.221 2.4 1.207a5.136 5.136 0 0 1-2.4 3.985l-40.062 23.125c-1.328.764-2.4.221-2.4-1.207a5.136 5.136 0 0 1 2.4-3.985z" class="cls-12"/>
                <path id="Path_654" d="M227.143 296.341l40.073-23.136c1.317-.764 2.391-.221 2.391 1.218a5.148 5.148 0 0 1-2.391 3.974l-40.073 23.136c-1.317.764-2.391.221-2.391-1.218a5.148 5.148 0 0 1 2.391-3.974z" class="cls-12"/>
                <path id="Path_655" d="M225.892 307.444l51.564-29.767c.664-.387 1.207-.111 1.207.609a2.557 2.557 0 0 1-1.207 1.982l-51.508 29.778c-.664.376-1.207.111-1.229-.609a2.546 2.546 0 0 1 1.173-1.993z" class="cls-14"/>
                <path id="Path_656" d="M225.892 312.625l51.564-29.767c.664-.376 1.207-.111 1.207.609a2.579 2.579 0 0 1-1.207 1.993l-51.508 29.767c-.664.376-1.207.111-1.229-.609a2.546 2.546 0 0 1 1.173-1.993z" class="cls-14"/>
                <path id="Path_657" d="M225.892 317.817l51.564-29.778c.664-.376 1.207-.111 1.207.609a2.579 2.579 0 0 1-1.207 1.993l-51.508 29.767c-.664.387-1.207.111-1.229-.609a2.524 2.524 0 0 1 1.173-1.982z" class="cls-14"/>
                <path id="Path_658" d="M225.892 323l51.564-29.767c.664-.387 1.207-.111 1.207.6a2.568 2.568 0 0 1-1.207 1.993l-51.508 29.767c-.664.387-1.207.111-1.229-.6a2.524 2.524 0 0 1 1.173-1.993z" class="cls-14"/>
                <path id="Path_659" d="M225.892 328.178l51.564-29.767c.664-.387 1.207-.111 1.207.609a2.579 2.579 0 0 1-1.207 1.993l-51.508 29.767c-.664.376-1.207.111-1.229-.609a2.546 2.546 0 0 1 1.173-1.993z" class="cls-14"/>
                <path id="Path_660" d="M227.143 337.7l4.151-2.391c1.328-.764 2.4-.144 2.4 1.384v4.849a5.291 5.291 0 0 1-2.4 4.151l-4.2 2.424c-1.328.764-2.391.144-2.391-1.384v-4.882a5.325 5.325 0 0 1 2.435-4.151z" class="cls-13"/>
                <path id="Path_661" d="M235.257 334.311c0 .72.531.985 1.2.609l11.07-6.409a2.59 2.59 0 0 0 1.207-1.982c0-.719-.531-.985-1.2-.609l-11.07 6.4a2.568 2.568 0 0 0-1.207 1.991z" class="cls-12"/>
                <path id="Path_662" d="M235.257 338.207c0 .72.531.985 1.2.609l11.07-6.409a2.579 2.579 0 0 0 1.207-1.982c0-.72-.531-.985-1.2-.609l-11.07 6.409a2.535 2.535 0 0 0-1.207 1.981z" class="cls-12"/>
                <path id="Path_663" d="M235.257 342.115c0 .708.531.985 1.2.6l11.07-6.4a2.613 2.613 0 0 0 1.207-1.993c0-.708-.531-.985-1.2-.6l-11.07 6.4a2.557 2.557 0 0 0-1.207 1.993z" class="cls-12"/>
                <path id="Path_664" d="M227.143 353.274l4.151-2.391c1.328-.764 2.4-.144 2.4 1.384v4.849a5.291 5.291 0 0 1-2.4 4.151l-4.2 2.424c-1.328.764-2.391.144-2.391-1.384v-4.882a5.325 5.325 0 0 1 2.435-4.151z" class="cls-13"/>
                <path id="Path_665" d="M235.257 349.886c0 .72.531.985 1.2.609l11.07-6.409a2.59 2.59 0 0 0 1.207-1.982c0-.72-.531-.985-1.2-.609l-11.07 6.4a2.568 2.568 0 0 0-1.207 1.991z" class="cls-12"/>
                <path id="Path_666" d="M235.257 353.783c0 .72.531 1 1.2.609l11.07-6.4A2.613 2.613 0 0 0 248.73 346c0-.708-.531-.985-1.2-.6l-11.07 6.4a2.546 2.546 0 0 0-1.207 1.982z" class="cls-12"/>
                <path id="Path_667" d="M235.257 357.691c0 .708.531.985 1.2.6l11.07-6.4a2.613 2.613 0 0 0 1.207-1.993c0-.708-.531-.985-1.2-.6l-11.07 6.4a2.557 2.557 0 0 0-1.207 1.993z" class="cls-12"/>
                <path id="Path_668" d="M257.054 320.761l4.151-2.4c1.328-.764 2.391-.144 2.391 1.384v4.86a5.28 5.28 0 0 1-2.347 4.173l-4.2 2.424c-1.328.764-2.391.144-2.391-1.384v-4.882a5.358 5.358 0 0 1 2.396-4.175z" class="cls-13"/>
                <path id="Path_669" d="M265.157 317.374c0 .708.542.985 1.207.6l11.07-6.4a2.613 2.613 0 0 0 1.207-1.993c0-.708-.531-.985-1.2-.6l-11.07 6.4a2.579 2.579 0 0 0-1.218 1.993z" class="cls-12"/>
                <path id="Path_670" d="M265.157 321.271c0 .72.542.985 1.207.609l11.07-6.409a2.59 2.59 0 0 0 1.207-1.982c0-.72-.531-.985-1.2-.609l-11.07 6.4a2.579 2.579 0 0 0-1.218 1.993z" class="cls-12"/>
                <path id="Path_671" d="M265.157 325.167c0 .72.542 1 1.207.609l11.07-6.4a2.613 2.613 0 0 0 1.207-1.993c0-.708-.531-.985-1.2-.6l-11.07 6.4a2.557 2.557 0 0 0-1.214 1.984z" class="cls-12"/>
                <path id="Path_672" d="M257.054 336.337l4.151-2.391c1.328-.764 2.391-.144 2.391 1.384v4.849a5.28 5.28 0 0 1-2.391 4.151l-4.2 2.424c-1.328.764-2.391.144-2.391-1.384v-4.882a5.358 5.358 0 0 1 2.44-4.151z" class="cls-13"/>
                <path id="Path_673" d="M265.157 332.949c0 .72.542.985 1.207.609l11.07-6.409a2.59 2.59 0 0 0 1.207-1.982c0-.72-.531-.985-1.2-.609l-11.07 6.4a2.579 2.579 0 0 0-1.218 1.993z" class="cls-12"/>
                <path id="Path_674" d="M265.157 336.846c0 .72.542 1 1.207.609l11.07-6.409a2.579 2.579 0 0 0 1.207-1.982c0-.72-.531-.985-1.2-.609l-11.07 6.409a2.546 2.546 0 0 0-1.214 1.982z" class="cls-12"/>
                <path id="Path_675" d="M265.157 340.754c0 .708.542.985 1.207.6l11.07-6.4a2.613 2.613 0 0 0 1.207-1.993c0-.708-.531-.985-1.2-.6l-11.07 6.4a2.568 2.568 0 0 0-1.218 1.993z" class="cls-12"/>
                <path id="Path_773" d="M113.168 221.808l-5.1-2.945a3.122 3.122 0 0 1-1.406-2.435v-42.465a3.1 3.1 0 0 1 1.406-2.435l49.981-28.859a3.144 3.144 0 0 1 2.812 0l5.1 2.945a3.144 3.144 0 0 1 1.406 2.446v42.464a3.122 3.122 0 0 1-1.406 2.435l-49.971 28.849a3.1 3.1 0 0 1-2.823 0z" class="cls-9" transform="translate(4 93)"/>
                <g id="Group_336" transform="translate(4 94)">
                    <path id="Path_473-3" d="M115.747 221.918a3.1 3.1 0 0 1-2.568-.111l-5.114-2.945a3.122 3.122 0 0 1-1.406-2.435v-42.475a2.889 2.889 0 0 1 .41-1.384l7.926 4.572a2.79 2.79 0 0 0-.421 1.395V221c-.001.808.553 1.173 1.173.918z" class="cls-11"/>
                    <path id="Path_474-3" d="M114.585 178.535V221c0 .9.62 1.262 1.406.808l49.97-28.848a3.122 3.122 0 0 0 1.406-2.435V148.06c0-.9-.631-1.262-1.406-.819L115.99 176.1a3.077 3.077 0 0 0-1.405 2.435z" class="cls-12"/>
                    <path id="Path_475-3" d="M114.585 192.14l52.781-30.475v1.528l-52.792 30.475z" class="cls-11"/>
                    <path id="Path_476-3" d="M137.012 177.672l7.915-4.572v6.088l-7.915 4.572z" class="cls-13"/>
                    <path id="Path_478-3" d="M144.927 173.1l-1.317-.764-7.915 4.572 1.317.764z" class="cls-13"/>
                    <path id="Path_480-3" d="M135.695 176.908V183l1.317.764v-6.088z" class="cls-13"/>
                    <path id="Path_481-3" d="M126.54 165.495c-.9 0-1.627-.077-1.627-.974v-7.328a7.815 7.815 0 0 1 3.62-6.288l14.269-8.291a3.321 3.321 0 0 1 5.247 3.033v7.417c0 .9-.72.974-1.616.974s-1.627-.077-1.627-.974v-7.417a1.35 1.35 0 0 0 0-.365 1.737 1.737 0 0 0-.332.144l-14.313 8.258a4.671 4.671 0 0 0-2 3.476v7.361c-.005.896-.724.974-1.621.974z" class="cls-13"/>
                </g>
            </g>
            <g id="freepik--Icons--inject-3">
                <path id="Path_676" d="M337.2 183.185a6.642 6.642 0 0 0-2.978-5.159l-2.424-1.395a6.564 6.564 0 0 0-5.956 0L306.669 187.7a6.565 6.565 0 0 0-2.978 5.148v22.14a6.575 6.575 0 0 0 2.978 5.148l2.424 1.406a5.532 5.532 0 0 0 .631.3l.255.077a2.39 2.39 0 0 1 .432.133 3.313 3.313 0 0 0 .354.066c.122 0 .243.055.365.066h1.461a1.522 1.522 0 0 0 .542-.066h.155a4.833 4.833 0 0 0 .576-.133h.077a4.915 4.915 0 0 0 1.107-.443l19.173-11.07a6.642 6.642 0 0 0 2.978-5.159z" class="cls-10"/>
                <path id="Path_677" d="M337.2 183.163V205.3a6.565 6.565 0 0 1-2.978 5.159l-19.173 11.07a3.808 3.808 0 0 1-.72.31h-.387c-1.107.122-1.86-.664-1.86-2.1V197.6a6.565 6.565 0 0 1 2.978-5.147l19.173-11.07c1.494-.863 2.723-.31 2.934 1.218a.983.983 0 0 0-.078-.465 4.883 4.883 0 0 1 .111 1.027z" class="cls-13"/>
                <path id="Path_678" d="M315.492 215.132c0 .3.21.41.465.266l16.14-9.365a1.03 1.03 0 0 0 .454-.8v-9.564l-17.059 9.9z" class="cls-6"/>
                <path id="Path_679" d="M332.1 190.07l-4.306 2.546v-1.649a1.074 1.074 0 0 0-1.7-.985l-4.649 2.679a2.513 2.513 0 0 0-1.173 2.037v2.269l-4.35 2.513a1.007 1.007 0 0 0-.465.786v3.321l17.147-9.863V190.4c-.004-.352-.204-.474-.504-.33zm-10.826 4.594a1.483 1.483 0 0 1 .653-1.107l4.649-2.69h.1a.3.3 0 0 1 0 .122v2.211l-5.424 3.133z" class="cls-6"/>
                <path id="Path_680" d="M337.156 182.653c-.21-1.517-1.45-2.07-2.934-1.207l-19.184 11.07a5.978 5.978 0 0 0-2.092 2.214l-8.38-4.838a6.177 6.177 0 0 1 2.1-2.214l19.173-11.07a6.564 6.564 0 0 1 5.956 0l2.427 1.392a6.642 6.642 0 0 1 2.934 4.653z" class="cls-13"/>
                <path id="Path_681" d="M314.507 221.8a.841.841 0 0 1-.177.066l-.443.144a6.553 6.553 0 0 1-1.162.232h-.653a6.077 6.077 0 0 1-2.978-.708l-2.457-1.373a6.642 6.642 0 0 1-2.979-5.161v-22.14a5.535 5.535 0 0 1 .354-1.849c.1-.255.21-.5.321-.731l.2-.354 8.38 4.838a6.033 6.033 0 0 0-.875 2.934v22.14c0 1.439.764 2.214 1.86 2.1h.177z" class="cls-13"/>
                <path id="Path_682" d="M337.2 229.933a6.642 6.642 0 0 0-2.978-5.159l-2.424-1.395a6.564 6.564 0 0 0-5.956 0l-19.173 11.07a6.642 6.642 0 0 0-2.978 5.147v22.14a6.575 6.575 0 0 0 2.945 5.159l2.424 1.406a4.071 4.071 0 0 0 .631.288l.255.089.432.133.354.066.365.066h2.159a2.073 2.073 0 0 0 .576-.133h.077a4.915 4.915 0 0 0 1.107-.443l19.173-11.07a6.642 6.642 0 0 0 2.978-5.159z" class="cls-9"/>
                <path id="Path_683" d="M327.414 247.468a2.867 2.867 0 0 0-.554 1.107 1.461 1.461 0 0 0 .642-.653c0-.078.144-.332 0-.454a.089.089 0 0 0-.089 0z" class="cls-27"/>
                <path id="Path_684" d="M324.99 246.914a.266.266 0 0 0-.155.232 1.185 1.185 0 0 0 .155.786 2.092 2.092 0 0 0 .144-.963c-.011-.11-.044-.11-.144-.055z" class="cls-27"/>
                <path id="Path_685" d="M322.566 250.268a.417.417 0 0 0-.055.554c.122.111.354.111.631-.078-.242-.387-.442-.564-.576-.476z" class="cls-27"/>
                <path id="Path_686" d="M324.99 241.324c-2.69 1.539-4.86 5.7-4.86 9.277 0 5.136 3.177 4.151 3.177 6.221a.587.587 0 0 0 .5.631 3 3 0 0 0 2.369-1.373 2.214 2.214 0 0 0 .487-1.2c0-2.07 3.177-4.76 3.177-9.9.043-3.656-2.171-5.25-4.85-3.656zm2.8 6.852a2.214 2.214 0 0 1-1.107 1.107c-.1.4-.21.863-.3 1.417a27.882 27.882 0 0 0-.4 4.594.5.5 0 0 1-.2.387c-.111.055-.2 0-.2-.144A27.15 27.15 0 0 1 326 250.8q.133-.775.3-1.428a1.394 1.394 0 0 1-.52 0 1.66 1.66 0 0 1-.775-.432 9.273 9.273 0 0 1-.786 1.328 5.675 5.675 0 0 1-.509.631 10.5 10.5 0 0 1 .288 1.107 20.767 20.767 0 0 1 .41 4.262.5.5 0 0 1-.2.376c-.111.066-.2 0-.2-.155a21.2 21.2 0 0 0-.4-4.129 7.425 7.425 0 0 0-.3-1.107c-.487.376-.886.41-1.107.21a.952.952 0 0 1-.089-1.107 1.04 1.04 0 0 1 .553-.62c.31-.089.62.166.886.708a4.528 4.528 0 0 0 .465-.565 7.887 7.887 0 0 0 .742-1.284 1.815 1.815 0 0 1-.288-1.328 1.2 1.2 0 0 1 .542-.852c.266-.144.465-.066.531.221a3.177 3.177 0 0 1-.288 1.672 1.539 1.539 0 0 0 .742.432 1.34 1.34 0 0 0 .465 0 3.875 3.875 0 0 1 .9-1.727c.21-.177.41-.188.542 0a1.184 1.184 0 0 1-.111 1.118z" class="cls-27"/>
                <path id="Path_687" d="M324.99 240.062c-.188.111-.332 0-.332-.244v-2.535a.753.753 0 0 1 .332-.62c.177-.111.321 0 .321.244v2.535a.764.764 0 0 1-.321.62z" class="cls-27"/>
                <path id="Path_688" d="M321.99 242.862c-.155.221-.354.266-.454.1l-.941-1.638a.664.664 0 0 1 .122-.675c.155-.21.354-.255.443-.1l.952 1.649a.7.7 0 0 1-.122.664z" class="cls-27"/>
                <path id="Path_689" d="M319.8 247.058c-.089.255-.288.454-.454.421l-1.638-.321c-.155 0-.21-.266-.122-.531s.288-.443.454-.421l1.638.321c.153.033.242.265.122.531z" class="cls-27"/>
                <path id="Path_690" d="M318.99 251.508a.786.786 0 0 1-.321.631l-1.9 1.107c-.177.111-.332 0-.332-.244a.8.8 0 0 1 .332-.631l1.9-1.107c.144-.11.321.023.321.244z" class="cls-27"/>
                <path id="Path_691" d="M319.8 255.039a.719.719 0 0 1-.122.675l-1.638 2.214c-.166.21-.365.255-.454.1a.72.72 0 0 1 .122-.675l1.638-2.214c.164-.21.364-.255.454-.1z" class="cls-27"/>
                <path id="Path_692" d="M330.171 249.073c.089-.266.3-.454.454-.421l1.638.321c.166 0 .21.266.122.531s-.288.443-.443.421l-1.649-.321c-.155-.055-.211-.288-.122-.531z" class="cls-27"/>
                <path id="Path_693" d="M330.99 244.645a.786.786 0 0 1 .321-.631l1.9-1.107c.177-.111.332 0 .332.244a.8.8 0 0 1-.332.631l-1.9 1.107a.23.23 0 0 1-.321-.244z" class="cls-27"/>
                <path id="Path_694" d="M330.171 241.069a.719.719 0 0 1 .122-.675l1.649-2.214c.155-.21.354-.255.443-.1a.686.686 0 0 1-.122.675l-1.638 2.214c-.155.211-.366.255-.454.1z" class="cls-27"/>
                <path id="Path_695" d="M327.979 239.409c-.155 0-.21-.266-.122-.531l.952-2.734c.089-.266.288-.454.454-.421s.21.266.111.52l-.941 2.745c-.089.266-.299.454-.454.421z" class="cls-27"/>
                <path id="Path_696" d="M326.717 255.493v1.649a2.28 2.28 0 0 1-.509 1.229 3.111 3.111 0 0 1-2.446 1.417.609.609 0 0 1-.5-.7v-1.483a.609.609 0 0 0 .5.531 3.077 3.077 0 0 0 2.446-1.417 2.214 2.214 0 0 0 .509-1.229z" class="cls-27"/>
                <path id="Path_697" d="M337.156 229.424c-.21-1.528-1.45-2.081-2.934-1.218l-19.184 11.07a6.033 6.033 0 0 0-2.092 2.214l-8.38-4.826a6.088 6.088 0 0 1 2.1-2.214l19.173-11.07a6.564 6.564 0 0 1 5.956 0l2.424 1.395a6.642 6.642 0 0 1 2.934 4.649z" class="cls-12"/>
                <path id="Path_698" d="M314.507 268.545l-.177.066-.443.133a5.037 5.037 0 0 1-1.162.232h-.055a5.411 5.411 0 0 1-.6 0 6.078 6.078 0 0 1-2.978-.708l-2.457-1.362a6.642 6.642 0 0 1-2.978-5.159v-22.14a5.534 5.534 0 0 1 .354-1.849c.1-.255.21-.5.321-.731l.2-.354 8.38 4.826a6.066 6.066 0 0 0-.875 2.934v22.14c0 1.428.764 2.214 1.86 2.1h.177a2.349 2.349 0 0 0 .433-.128z" class="cls-11"/>
                <path id="Path_699" d="M337.2 276.67a6.642 6.642 0 0 0-2.978-5.147l-2.424-1.417a6.642 6.642 0 0 0-5.956 0l-19.206 11.07a6.642 6.642 0 0 0-2.978 5.159v22.14a6.642 6.642 0 0 0 2.978 5.159l2.424 1.395a3.321 3.321 0 0 0 .631.3l.255.089.432.133.354.066.365.066h2.159a4.828 4.828 0 0 0 .576-.122h.077a4.938 4.938 0 0 0 1.107-.454l19.173-11.07a6.576 6.576 0 0 0 2.978-5.147z" class="cls-10"/>
                <path id="Path_700" d="M337.156 276.172c-.21-1.528-1.45-2.081-2.934-1.218l-19.184 11.07a6.033 6.033 0 0 0-2.092 2.214l-8.38-4.849a6.089 6.089 0 0 1 2.1-2.214l19.173-11.07a6.564 6.564 0 0 1 5.956 0l2.424 1.395a6.642 6.642 0 0 1 2.934 4.672z" class="cls-13"/>
                <path id="Path_701" d="M337.2 276.659V298.8a6.564 6.564 0 0 1-2.978 5.159l-19.173 11.07a3.807 3.807 0 0 1-.72.31l-.2.055h-.188c-1.107.122-1.86-.664-1.86-2.1v-22.156a6.565 6.565 0 0 1 2.978-5.147l19.173-11.07c1.494-.863 2.723-.31 2.934 1.218a.982.982 0 0 0-.078-.465 4.986 4.986 0 0 1 .111.985z" class="cls-13"/>
                <path id="Path_702" d="M333.425 292.865a.2.2 0 0 0-.122 0l-1.638-.089a.277.277 0 0 1-.277-.266v-.775a6.467 6.467 0 0 0 0-.808.753.753 0 0 1 .188-.487l1.827-2.214a.487.487 0 0 0 .111-.454l-.863-1.926-.055-.055a.41.41 0 0 0-.288.089l-1.948 1.793a.354.354 0 0 1-.432.066 3.034 3.034 0 0 0-.841-.487.31.31 0 0 1-.188-.343l.6-2.734a.177.177 0 0 0-.078-.2.475.475 0 0 0-.188 0l-1.915.2a.52.52 0 0 0-.421.288l-1.029 2.779a.941.941 0 0 1-.421.41 8.789 8.789 0 0 0-1.184.686c-.166.111-.343.111-.41 0l-.985-1.494c-.066-.111-.221-.089-.354 0l-2.092 2.214a.532.532 0 0 0-.166.454l.587 1.982a.719.719 0 0 1-.111.476 16.919 16.919 0 0 0-.963 1.683.786.786 0 0 1-.465.343l-1.793.432a.609.609 0 0 0-.41.332l-.908 3.055a.221.221 0 0 0 .232.266l1.638.1a.266.266 0 0 1 .277.266 8.4 8.4 0 0 0 0 1.583.83.83 0 0 1-.177.487l-1.838 2.214a.5.5 0 0 0-.111.454l.875 1.926a.1.1 0 0 0 0 .066h.066a.354.354 0 0 0 .221-.1l1.948-1.793a.376.376 0 0 1 .432-.078 2.922 2.922 0 0 0 .841.487.332.332 0 0 1 .2.343l-.609 2.745a.166.166 0 0 0 .077.188.221.221 0 0 0 .177 0l1.915-.188a.542.542 0 0 0 .421-.288l1.041-2.79a.8.8 0 0 1 .41-.4l.609-.321c.188-.111.387-.232.576-.365s.343-.122.41 0l.985 1.494a.288.288 0 0 0 .31-.089l2.1-2.214a.542.542 0 0 0 .155-.465l-.587-1.97a.731.731 0 0 1 .111-.487 14.143 14.143 0 0 0 .963-1.672.786.786 0 0 1 .465-.343l1.793-.432a.6.6 0 0 0 .41-.343l.908-3.044a.221.221 0 0 0-.011-.188zm-9.6 7.45h-.725a1.926 1.926 0 0 1-1.8-1.218 3.21 3.21 0 0 1-.255-1.007 3.037 3.037 0 0 1 0-.553 8.524 8.524 0 0 1 2.369-5.435 6.565 6.565 0 0 1 1.45-1.184l.487-.244a3.011 3.011 0 0 1 1.351-.288h.232a1.926 1.926 0 0 1 1.505 1.2c.808 1.793-.122 4.926-2.081 7a5.535 5.535 0 0 1-2.53 1.729z" class="cls-6"/>
                <path id="Path_703" d="M314.507 315.293l-.177.066-.443.133a5.036 5.036 0 0 1-1.162.232h-.055a5.426 5.426 0 0 1-.6 0 6.078 6.078 0 0 1-2.978-.708l-2.458-1.373a6.642 6.642 0 0 1-2.978-5.147v-22.14a5.535 5.535 0 0 1 .354-1.838c.1-.255.21-.5.321-.731l.2-.365 8.38 4.838a6.066 6.066 0 0 0-.875 2.934v22.14c0 1.439.764 2.214 1.86 2.114h.177a2.342 2.342 0 0 0 .432-.155z" class="cls-13"/>
                <path id="Path_704" d="M337.2 42.94a6.575 6.575 0 0 0-2.978-5.148l-2.422-1.405a6.564 6.564 0 0 0-5.956 0l-19.206 11.07a6.642 6.642 0 0 0-2.978 5.159v22.14a6.642 6.642 0 0 0 2.978 5.159l2.424 1.395a4.119 4.119 0 0 0 .631.3l.255.089.432.122.354.077h2.524l.576-.122h.077a4.937 4.937 0 0 0 1.107-.454l19.173-11.07a6.642 6.642 0 0 0 2.978-5.159z" class="cls-12"/>
                <path id="Path_705" d="M337.2 42.929v22.14a6.565 6.565 0 0 1-2.978 5.159L315.049 81.3a3.809 3.809 0 0 1-.72.31h-.387c-1.107.122-1.86-.664-1.86-2.1V57.364a6.565 6.565 0 0 1 2.978-5.148l19.173-11.07c1.494-.863 2.723-.31 2.934 1.218a1.027 1.027 0 0 0-.078-.476 4.994 4.994 0 0 1 .111 1.041z" class="cls-9"/>
                <path id="Path_706" d="M324.149 51.564c2.391-1.384 4.328-.266 4.328 2.491a9.575 9.575 0 0 1-4.328 7.494c-2.391 1.373-4.328.255-4.328-2.5a9.531 9.531 0 0 1 4.328-7.483z" class="cls-27"/>
                <path id="Path_707" d="M332.673 66.309c0-4.528-3.177-6.542-7.107-4.273l-2.458 1.417a15.686 15.686 0 0 0-7.1 12.3v1.227l16.6-9.62z" class="cls-27"/>
                <path id="Path_708" d="M314.507 81.563l-.177.066-.443.133a6.552 6.552 0 0 1-1.162.232h-.055a5.413 5.413 0 0 1-.6 0 6.077 6.077 0 0 1-2.978-.708l-2.458-1.373a6.642 6.642 0 0 1-2.978-5.159V52.615a5.679 5.679 0 0 1 .354-1.849c.1-.244.21-.487.321-.72l.2-.365 8.38 4.838a6.033 6.033 0 0 0-.875 2.934v22.14c0 1.439.764 2.214 1.86 2.114h.177z" class="cls-11"/>
                <path id="Path_709" d="M337.2 89.666a6.642 6.642 0 0 0-2.978-5.159l-2.422-1.394a6.564 6.564 0 0 0-5.956 0L306.636 94.2a6.565 6.565 0 0 0-2.978 5.148v22.14a6.642 6.642 0 0 0 2.978 5.159l2.424 1.395a5.537 5.537 0 0 0 .631.3l.255.077a2.79 2.79 0 0 0 .432.133l.354.077.365.055h1.461a4.538 4.538 0 0 0 .542-.066h.155a4.84 4.84 0 0 0 .576-.133h.077a4.915 4.915 0 0 0 1.107-.443l19.173-11.07a6.642 6.642 0 0 0 2.978-5.159z" class="cls-13"/>
                <path id="Path_710" d="M334.366 95.323l-18.8 10.849 9.4 1.605z" class="cls-6"/>
                <path id="Path_711" d="M324.968 110.522l-9.4-4.35v14.668l18.8-10.849V95.323z" class="cls-6"/>
                <path id="Path_712" d="M337.156 89.19c-.21-1.528-1.45-2.081-2.934-1.218l-19.184 11.07a6.066 6.066 0 0 0-2.092 2.214l-8.38-4.838a6.177 6.177 0 0 1 2.1-2.214l19.173-11.07a6.564 6.564 0 0 1 5.956 0l2.424 1.395a6.642 6.642 0 0 1 2.937 4.661z" class="cls-13"/>
                <path id="Path_713" d="M314.507 128.3a.487.487 0 0 1-.177.066l-.443.144a6.553 6.553 0 0 1-1.162.232h-.055a5.4 5.4 0 0 1-.6 0 6.077 6.077 0 0 1-2.978-.708l-2.458-1.373a6.642 6.642 0 0 1-2.978-5.159V99.363a5.534 5.534 0 0 1 .354-1.849c.1-.255.21-.487.321-.72a3.894 3.894 0 0 1 .2-.365l8.38 4.838a6.033 6.033 0 0 0-.875 2.934v22.14c0 1.439.764 2.214 1.86 2.1h.177a2.381 2.381 0 0 0 .432-.144z" class="cls-13"/>
                <path id="Path_714" d="M337.2 136.436a6.642 6.642 0 0 0-2.978-5.159l-2.424-1.395a6.565 6.565 0 0 0-5.956 0l-19.173 11.07a6.565 6.565 0 0 0-2.978 5.147v22.14a6.575 6.575 0 0 0 2.978 5.147l2.424 1.406a5.53 5.53 0 0 0 .631.3l.255.077a2.391 2.391 0 0 1 .432.133 3.315 3.315 0 0 0 .354.066l.365.066h1.461a1.522 1.522 0 0 0 .542-.066h.155a4.839 4.839 0 0 0 .576-.133h.077a4.915 4.915 0 0 0 1.107-.443l19.173-11.07a6.642 6.642 0 0 0 2.978-5.159z" class="cls-10"/>
                <path id="Path_715" d="M337.156 135.938c-.21-1.528-1.45-2.081-2.934-1.218l-19.184 11.07a6.066 6.066 0 0 0-2.092 2.21l-8.38-4.838a6.177 6.177 0 0 1 2.1-2.214l19.173-11.07a6.564 6.564 0 0 1 5.956 0l2.424 1.395a6.642 6.642 0 0 1 2.937 4.665z" class="cls-12"/>
                <path id="Path_716" d="M337.2 136.425v22.14a6.564 6.564 0 0 1-2.978 5.159l-19.173 11.07a3.808 3.808 0 0 1-.72.31h-.387c-1.107.122-1.86-.664-1.86-2.1v-22.14a6.565 6.565 0 0 1 2.978-5.147l19.173-11.07c1.494-.863 2.723-.31 2.934 1.218a1.05 1.05 0 0 0-.078-.476 5.09 5.09 0 0 1 .111 1.041z" class="cls-9"/>
                <path id="Path_717" d="M324.16 144.783l-9.243 11.812 8.967 1.085 9.254-11.8z" class="cls-27"/>
                <path id="Path_718" d="M318.315 163.4c0 1.959 2.612 2.048 5.845.177s5.845-4.97 5.845-6.93v-4.24l-5.845 7.472-5.845-.72z" class="cls-27"/>
                <path id="Path_719" d="M314.507 175.048a.487.487 0 0 1-.177.066l-.443.144a6.553 6.553 0 0 1-1.162.232h-.653a6.078 6.078 0 0 1-2.978-.708l-2.458-1.373a6.642 6.642 0 0 1-2.978-5.159v-22.127a5.535 5.535 0 0 1 .354-1.849c.1-.255.21-.5.321-.731l.2-.354 8.38 4.838a6.033 6.033 0 0 0-.875 2.934V173.1c0 1.439.764 2.214 1.86 2.1h.177a2.38 2.38 0 0 0 .432-.155z" class="cls-11"/>
            </g>
            <g id="freepik--character--inject-3-3">
                <path id="Path_720" d="M436.575 233.852L383.8 219.527c-4.771-.819-6.775 10.837-1.993 11.657l54.242 5.48z" class="cls-9"/>
                <path id="Path_721" d="M383.8 219.527c-4.771-.819-6.775 10.837-1.993 11.657l7.561.764c-3.1-.321-.941-11.158 1.417-10.516z" class="cls-13"/>
                <path id="Path_722" d="M458.836 256.124c6.354 0 9.741 1.915 12.4 7.815 2.546 5.646 10.428 22.04 10.04 26.014s-16.6 20.834-16.6 20.834l-4.627-5.624 10.04-16.859-9.852-14.214z" class="cls-19"/>
                <g id="freepik--character--inject-3-4">
                    <path id="Path_723" d="M443.316 430.01a42.074 42.074 0 0 1 1.107 4.1c.31 1.517.753 4.052.221 5.192s-2.6 1.882-5.823 1.86c-2.081 0-5.325 1.395-7.55 2.635s-7.074 1.793-9.5 1.505c-2.856-.332-5.823-1.993-6.288-3.177s-.852-2.812 6.9-5.291c.066 0 9.376-3.055 12.631-6.642z" class="cls-11"/>
                    <path id="Path_724" d="M443.316 430.221l-1.472-.177-6.83.133c-3.255 3.6-12.564 6.642-12.631 6.642l-1.24.421c-1.351 1.107-.21 2.934 2.989 3.21s13.129-3.055 15.343-4.118a6.575 6.575 0 0 0 3.841-6.111z" class="cls-19"/>
                    <path id="Path_725" d="M443.316 427.3v2.934c0 1.063-1.251 2.657-4.505 2.535-2.28-.077-3.886-.7-3.8-2.579v-2.712z" class="cls-19"/>
                    <path id="Path_726" d="M465.19 417.756c.587.244.708 1.373.731 3.62 0 1.694.31 4.672-1.694 5.214s-4.9.155-6.144-1.483c-1.528-2.037-2.557-3.819-4.76-6.321-1.915-2.214-3.985-4.2-4.7-7.184-.642-2.69 0-3.841 1.838-4.572s3.509-.133 6.066 2a11.628 11.628 0 0 0 2.28 1.207c1.701.523 5.793 7.286 6.383 7.519z" class="cls-11"/>
                    <path id="Path_727" d="M465.246 415.686l-.077 2.745s-1.838 3.609-6.963 0c-.111-.266-.565-5.59-.565-5.59z" class="cls-19"/>
                    <path id="Path_728" d="M458.8 410.239a11.631 11.631 0 0 1-2.28-1.207c-2.059-.664-6.409.111-4.428 3.111a23.247 23.247 0 0 0 6.133 6.288c2.325 1.107 3.133-.266 3.133-.266l-.819-6.465a5.137 5.137 0 0 0-1.739-1.461z" class="cls-19"/>
                    <path id="Path_729" d="M468.987 377.583a65.389 65.389 0 0 0-2.945-14.258s1.727-12.177 3.1-23.822c3.2-27.376-.742-27.874-4.605-37.394 0 0-33.3-4.428-34.771 10.14-1.827 18.177-1.007 53.434-.7 59.877s.83 9.365 2.745 22.87c1.461 10.284 3.232 33.287 3.232 33.287a7.871 7.871 0 0 0 8.3 0s4.738-28.638 4.638-36.066a63.3 63.3 0 0 0-2.38-16.284s2.978-29.623 3.742-34.317c0 0 .852 9.443 1.162 15.885s2.048 12.653 3.587 24.653c1.339 10.417 4.649 32.723 4.649 32.723 4.605 2.646 6.531.819 6.531.819s4.734-29.08 3.715-38.113z" class="cls-19"/>
                    <path id="Path_730" d="M460.951 293.231s6.088 9.111 8.7 18.564 1.384 19.616.41 29.712-3.022 20.225-3.022 20.225-5.624 5.79-17.435 8.856c-14.491 3.786-21.033-.731-21.033-.731s-1.328-38.512 0-53.257 2.878-21.431 2.878-21.431z" class="cls-9"/>
                    <path id="Path_731" d="M443.98 250.213l1.284 13.638 11.989-.753-.963-15.133z" class="cls-19"/>
                    <path id="Path_732" d="M468.024 261.914c-1.218-3.62-3.708-5.734-9.188-5.79l-2.026.066c-.387 2-6.288 3.642-12.177 1.583-.819.21-4.129.62-5.4.786l-1.738.421c-4.251 1.384-7.937 4.273-8.07 15.974-.055 5.535 1.982 20.236 1.982 20.236s19.162 3.874 29.49-1.959c6.85-16.683 8.932-25.959 7.127-31.317z" class="cls-10"/>
                    <g id="Group_308">
                        <path id="Path_733" fill="#40781a" d="M468.024 261.914c-1.218-3.62-3.708-5.734-9.188-5.79l-2.026.066c-.387 2-6.288 3.642-12.177 1.583-.819.21-4.129.62-5.4.786l-1.738.421c-4.251 1.384-7.937 4.273-8.07 15.974-.055 5.535 1.982 20.236 1.982 20.236s19.162 3.874 29.49-1.959c6.85-16.683 8.932-25.959 7.127-31.317z"/>
                    </g>
                    <path id="Path_734" d="M439.287 258.56l-28.671-.2s1.627-16.04 2.624-18.144 3.421-2.535 5.79-3.221 2.391-1.815 2.391-1.815l-2.148-.21c-1.882-.2-2.635-2.546-1.815-4.129.387-.742 1.018-1.9 2.159-1.594l2.856.775s0-2.535-.908-3.576-1.594-.731-3.487-1.384c-1.417-.5-4.3-1.373-6.642-.421s-4.1 5.325-4.683 8.4a51.62 51.62 0 0 1-2.922 10.428c-2.081 5.723-5.125 17.457-5.4 22.14-.133 2.214.066 3.454 2.48 4.04s30.509 3.321 30.509 3.321c6.018-.77 9.472-6.628 7.867-14.41z" class="cls-19"/>
                    <path id="Path_735" d="M437.715 233.265s-4.528-5.4-.985-10.66c4.184-6.188 11.557-8.291 20.668-5.535 4.505 1.339 11.125 7.572 11.457 16.306.266 6.73-18.62 11.192-18.321 15.808z" class="cls-11"/>
                    <path id="Path_736" d="M435.047 235.235s-2.657 4.007-2.314 4.428a6.4 6.4 0 0 0 2.037.875z" class="cls-20"/>
                    <path id="Path_737" d="M443.194 222.5c-2.579 1.339-7.04 3.8-8.181 13.284-1.184 9.753 1 13.151 2.325 14.391.9.863 5.535 1.173 7.948.432 3.022-.941 9.575-4.184 12.642-9.221 3.609-5.922 4.362-13.815.188-16.915-5.866-4.28-12.73-3.071-14.922-1.971z" class="cls-19"/>
                    <path id="Path_738" d="M442.431 222.926s-2.214 8.856.454 14.524c0 0 1.572-3.465 4.561-2.469s2.734 5 .365 7.052a4.483 4.483 0 0 1-4.66 1s.077 4.926 4.3 6.874c0 0 8.8 4.207 16.749-4.3 7.218-7.749 6.288-21.531-4.35-25.073s-17.419 2.392-17.419 2.392z" class="cls-11"/>
                    <path id="Path_739" d="M478.22 260.464a12.73 12.73 0 0 1-12.73-12.73v-16.373a12.73 12.73 0 0 1 12.73 12.73z" class="cls-11"/>
                    <path id="Path_740" d="M435.589 218.929c-3.963 4.029-4.184 15.664 7.3 18.52l7.505-20.6c-4.377-2.849-11.273-1.517-14.805 2.08z" class="cls-11"/>
                    <path id="Path_741" d="M441.689 240.648a2.28 2.28 0 0 1-1.362-2.911 2.214 2.214 0 0 1 2.9-1.362z" class="cls-11"/>
                </g>
            </g>
        </g>
    </g>
</svg>
