<svg xmlns="http://www.w3.org/2000/svg" width="645" height="588" viewBox="0 0 645 588">
    <defs>
        <clipPath id="clip-path">
            <path id="Rectangle_145" fill="#fff" stroke="#707070" d="M0 0H645V588H0z" transform="translate(762 211)"/>
        </clipPath>
        <style>
            .cls-4{fill:#fff}.cls-3{fill:#6cb43b}.cls-5{fill:none;stroke:#13250c;stroke-miterlimit:10;stroke-width:5.435px}.cls-8{fill:#f2d0b1}.cls-10{fill:#bc424b}
        </style>
    </defs>
    <g id="Mask_Group_18" clip-path="url(#clip-path)" transform="translate(-762 -211)">
        <g id="authentication_isometric" transform="translate(802.438 318.292)">
            <g id="Layer_2">
                <g id="Group_301" transform="translate(7.382 14.692)">
                    <path id="Path_345" d="M128.513 76.82l2.122 56.351a3.874 3.874 0 0 0 2.5 2.927 6.558 6.558 0 0 0 4.631.164l60.334-25.074c2.086-.779 3.389-2.386 3.351-4.132l-1.335-54.42a3.666 3.666 0 0 0-2.4-3.108 6.4 6.4 0 0 0-4.786-.124L131.823 72.7c-2.066.783-3.351 2.384-3.31 4.12z" class="cls-3" transform="translate(-113.095 .25)"/>
                    <g id="Group_328" transform="translate(-.779 21.999)">
                        <path id="Path_346" d="M163.353 122.318q-5.2-5.231-9.82-10.542a7.209 7.209 0 0 0-5.027-1.9 8.119 8.119 0 0 0-5.379 1.541l-.077.072a2.367 2.367 0 0 0-.37 3.576c3.253 3.648 6.6 7.278 10.1 10.855 3.836 3.98 14.489.395 10.573-3.602z" class="cls-4" transform="translate(-114.725 -30.696)"/>
                        <path id="Path_347" d="M151.816 118.4a448.106 448.106 0 0 0 28.646-43.568c2.929-5.072 11.714-.619 8.8 4.42a448.133 448.133 0 0 1-28.646 43.568c-3.544 4.78-12.356.369-8.8-4.42z" class="cls-4" transform="translate(-111.969 -27.906)"/>
                    </g>
                </g>
                <path id="Path_358" d="M376.236 194.487v42.2a5.635 5.635 0 0 1-2.548 4.792 4.812 4.812 0 0 1-5.121.032l-24.481-14.973" class="cls-5" transform="translate(2.849 29.925)"/>
                <g id="Group_300" transform="translate(170.846 46.908)">
                    <ellipse id="Ellipse_14" cx="147.853" cy="83.262" fill="none" stroke="#13250c" stroke-miterlimit="10" stroke-width="1.359px" opacity="0.5" rx="147.853" ry="83.262" transform="translate(-38 103.945)"/>
                    <path id="Path_349" d="M396.73 251.948s-1.839-31.59-2.518-39.416c-.613-7.147-2.8-38.112-20.8-47.921-22.758-12.4-48.978-28.481-73.211-20.995-19.644 6.075-26.336 79.4-26.121 84.3.444 8.773 61.315 55.211 122.65 24.032z" class="cls-3" transform="translate(-226.009 -34.05)"/>
                    <path id="Path_350" fill="#0c0d0f" d="M343.816 167.967c0 1.429-16.067 21.173-19.876 18.618s-5.648-20.208-8.033-18.618-11.147 13.008-12.407 12.114 1.888-31.161 4.472-36.236 35.844 12.901 35.844 24.122z" transform="translate(-219.623 -33.653)"/>
                    <path id="Path_351" d="M303.4 106.109s.1 20.53 0 28.159c-.1 8.04 3.048 29.768 15.3 29.071s24.845-16.081 24.845-19.654c0 0 12.389-8.308 5.383-14.705s-7.536 4.431-7.536 4.431-3.793-5.95-4.058-21.924c-.016.036-17.508 3.02-33.934-5.378z" class="cls-8" transform="translate(-219.584 -45.267)"/>
                    <path id="Path_352" d="M341.091 156.516c-6.244 6.218-16.414 7.379-25.823 5.914a3.176 3.176 0 0 1-2.816-2.877c-.149-3.109-.331-6.218-.58-9.309l32.315-17.1-2.5 22.21a8.854 8.854 0 0 1-.596 1.162z" class="cls-8" transform="translate(-217.726 -36.747)"/>
                    <path id="Path_354" fill="#422520" d="M304.679 123.71s-7.768-5.36-6.841-17.778 13.715-19.547 31.123-18.493 37.483 10.31 40.3 41.1 9.011 48.672-1.11 53.174-26.286 9.595-43.065 7.433c0 0 16.414-34.985 14.708-58.534s-2.1-5.575-4.008-1.68-31.107-5.222-31.107-5.222z" transform="translate(-220.818 -51.183)"/>
                    <path id="Path_355" d="M345.066 243.421a10.4 10.4 0 0 0-1.822.107q.265-19.815.1-39.613a2.013 2.013 0 0 1 4.025 0q.166 19.654-.1 39.309z" class="cls-10" transform="translate(-210.851 -15.07)"/>
                    <path id="Path_356" d="M290.975 233.2a2.51 2.51 0 0 0-.414-.214l-1.093-.643-1.275-.75-1.06-.625q0-23.55 1.292-47.046c.149-2.787 4.174-2.805 4.025 0q-1.259 24.229-1.309 48.475a2.326 2.326 0 0 1-.166.803z" class="cls-10" transform="translate(-223.147 -21.408)"/>
                    <path id="Path_357" d="M343.923 81.327l28.82 17.243a7.51 7.51 0 0 1 3.528 6.468v47.689" class="cls-5" transform="translate(-168.033 -49.131)"/>
                    <path id="Path_359" d="M317.521 63.175l-36.643-18.85a4.435 4.435 0 0 0-4.025.008 3.516 3.516 0 0 0-1.989 3.119v43.471" class="cls-5" transform="translate(-253.536 -43.846)"/>
                    <path id="Path_360" d="M299.1 211.648l-21.118-12.061a10.953 10.953 0 0 1-5.333-9.559v-39.506" class="cls-5" transform="translate(-251.321 -42.271)"/>
                </g>
            </g>
        </g>
    </g>
</svg>
