<svg xmlns="http://www.w3.org/2000/svg" width="652" height="685" viewBox="0 0 652 685">
    <defs>
        <clipPath id="clip-path">
            <path id="Rectangle_146" fill="#fff" stroke="#707070" d="M0 0H652V685H0z" transform="translate(150.104 2095.967)"/>
        </clipPath>
        <style>
            .cls-22,.cls-23,.cls-25{fill:#fff}.cls-24,.cls-5{fill:#263238}.cls-6{fill:#f2d0b1}.cls-21,.cls-7{fill:#6cb43b}.cls-9{fill:#ffb573}.cls-12,.cls-25{opacity:.2}.cls-13{fill:#fafafa}.cls-14{fill:#407bff}.cls-15{fill:#153101}.cls-20{fill:#254013}.cls-21{opacity:.7}.cls-22,.cls-24{opacity:.4}
        </style>
    </defs>
    <g id="Group_19" clip-path="url(#clip-path)" transform="translate(-150.104 -2095.967)">
        <g id="Hiring-rafiki_1_" transform="translate(223.143 2228.258)">
            <g id="freepik--background-complete--inject-1" transform="translate(11.782)">
                <path id="Rectangle_149" fill="#ebebeb" d="M0 0H11.326V0.378H0z" transform="translate(335.438 451.92)"/>
            </g>
            <g id="freepik--Shadow--inject-1" transform="translate(31.184 349.708)">
                <ellipse id="freepik--path--inject-1" cx="264.934" cy="88.288" fill="#f5f5f5" rx="264.934" ry="88.288"/>
            </g>
            <g id="freepik--Character--inject-1" transform="translate(276.421 -9.597)">
                <path id="Path_375" d="M276.832 167.49c1.3-6.361 14.936-12.4 26.665-3.022 10.687 8.39 15.222 24.025 11.078 38.2-6.295 21.606 26.561 20.806 34.172 57.234 6.008 28.708.443 69.367-33.09 67.161-51.18-3.369-46.762-61.359-49-91.835s-30.174-64.656 10.175-67.738z" class="cls-5" transform="translate(-117.453 -156.588)"/>
                <path id="Path_376" d="M255.836 244.591c-.222 4.412-.665 8.446-1.16 12.631s-1.186 8.28-1.955 12.39-1.642 8.219-2.75 12.269a125.458 125.458 0 0 1-3.806 12.088l-1.147 3.022c-.169.438-.482 1.1-.717 1.662s-.547 1.073-.821 1.617a46.958 46.958 0 0 1-3.571 5.515 89.956 89.956 0 0 1-7.82 9.066 150.056 150.056 0 0 1-17.151 15.109l-3.467-5.379c2.45-2.75 4.952-5.59 7.364-8.431s4.8-5.726 7.064-8.658q3.351-4.263 6.321-8.9a41.187 41.187 0 0 0 2.45-4.533c.143-.348.326-.71.443-1.043s.248-.6.391-1.1l.886-2.659a168.644 168.644 0 0 0 5.213-22.407c.665-3.838 1.147-7.736 1.642-11.619s.873-7.887 1.16-11.574z" class="cls-6" transform="translate(-116.36 -161.327)"/>
                <path id="Path_377" d="M250.986 229.491c-4.627 1.36-7.82 23.45-7.82 23.45l17.711 13.959s7.285-26.184 3.714-32.092c-3.753-6.164-6.855-7.308-13.605-5.317z" class="cls-7" transform="translate(-116.33 -153.09)"/>
                <path id="Path_378" fill="#6cb43b" d="M251.886 234.135l-3.558 22.271 7.168 5.636z" opacity="0.25" transform="translate(-116.813 -152.809)"/>
                <path id="Path_379" d="M212.569 318.92l-11.925 2.206 6.8 8.733s7.025-1.858 8.263-7.071z" class="cls-6" transform="translate(-113.346 -156.509)"/>
                <path id="Path_380" d="M194.418 322.757l6.8 8.537 5.643-1.541-6.8-8.733z" class="cls-6" transform="translate(-112.763 -156.403)"/>
                <path id="Path_381" d="M278.193 584.708h-11.235l-.758-30.158h11.234z" class="cls-9" transform="translate(-118.488 -136.558)"/>
                <path id="Path_382" d="M362.7 548l-10.4 4.926-13.176-26.336 10.4-4.926z" class="cls-9" transform="translate(-125.319 -138.226)"/>
                <path id="Path_383" d="M350.24 550.058l10.843-7.464a.818.818 0 0 1 1.173.227l6.334 9.065a2.37 2.37 0 0 1 .3 1.647 2.12 2.12 0 0 1-.837 1.375c-3.819 2.523-5.773 3.521-10.544 6.814-2.932 2.025-9.84 8.945-13.893 11.74s-6.647-1.707-5.213-3.294a45.727 45.727 0 0 0 10.53-18.373 3.389 3.389 0 0 1 1.307-1.737z" class="cls-5" transform="translate(-125.215 -137.173)"/>
                <path id="Path_384" d="M264.716 581.829h12.629a.924.924 0 0 1 .886.876l1.447 11.589a2.322 2.322 0 0 1-.457 1.618 1.712 1.712 0 0 1-1.341.694c-4.405-.091-6.516-.393-12.081-.393-3.415 0-10.426.408-15.183.408s-4.966-5.394-3.011-5.893c8.81-2.191 12.277-5.213 15.235-8.1a2.681 2.681 0 0 1 1.877-.8z" class="cls-5" transform="translate(-116.637 -135.175)"/>
                <g id="Group_302" opacity="0.2" transform="translate(147.728 383.437)">
                    <path id="Path_385" d="M266.217 554.565l.378 15.548h11.234l-.378-15.548z" transform="translate(-266.217 -519.995)"/>
                    <path id="Path_386" d="M349.537 521.663l-10.413 4.926 6.8 13.583 10.4-4.926z" transform="translate(-273.047 -521.663)"/>
                </g>
                <path id="Path_387" fill="#437124" d="M251.656 229.634s-5.357 2.176 5.37 78.569h45.614c-.769-21.531-.782-34.751 8.093-78.977a116.75 116.75 0 0 0-19.38-3.022 124.569 124.569 0 0 0-20.709 0c-8.901 1.073-18.988 3.43-18.988 3.43z" transform="translate(-117 -153.233)"/>
                <path id="Path_388" d="M312.044 245.725c-4.131 1.194-7.95 6.421-7.494 16.046a25.508 25.508 0 0 0 3.806 12.088c.73-7.4 1.955-16 3.91-27z" class="cls-12" transform="translate(-122.077 -152.222)"/>
                <path id="Path_389" d="M275.391 247.4s5.93 4.246 7.481 10.577c6.438-5.47 15.183-20.685 15.535-29.8a2.186 2.186 0 0 0-.5-1.431 1.623 1.623 0 0 0-1.23-.594 18.467 18.467 0 0 0-2.971.151z" class="cls-13" transform="translate(-119.349 -153.214)"/>
                <path id="Path_390" d="M274.223 247.4s-5.93 4.246-7.481 10.577c-6.92-5.878-3.076-25.278.886-31.73a17.285 17.285 0 0 1 4.2 0z" class="cls-13" transform="translate(-118.181 -153.216)"/>
                <path id="Path_391" d="M291.171 200.529c-1.3 7.721-2.607 21.878 2.046 27.046a52.509 52.509 0 0 1-18.311 21.153c-9.24-8.552-2.4-21.153-2.4-21.153 7.429-2.055 7.233-8.461 5.943-14.46z" class="cls-6" transform="translate(-118.85 -154.514)"/>
                <path id="Path_392" d="M286.821 205.418l-7.533 7.449a26.971 26.971 0 0 1 .639 4.261c2.841-.483 7.311-3.279 7.924-6.86.274-1.692-.769-4.049-1.03-4.85z" class="cls-12" transform="translate(-119.714 -154.266)"/>
                <path id="Path_393" d="M302.181 189.8c-3.076 12.42-4.157 17.753-10.882 22.815-10.113 7.555-22.6.484-22.781-12.752-.169-11.921 4.9-30.219 16.5-32.5 5.193-1.051 10.485 1.093 13.983 5.665a19.758 19.758 0 0 1 3.181 16.772z" class="cls-6" transform="translate(-118.704 -156.209)"/>
                <path id="Path_394" d="M280.137 168.565c.508 4.2 20.344 17.708 24.111 10.667s-1.655-12.344-10.1-13.689a18.933 18.933 0 0 0-14.011 3.022z" class="cls-5" transform="translate(-119.793 -156.303)"/>
                <path id="Path_395" d="M294.339 170.576c-2.437 3.717 2.724 30.491 10.113 27.967s7.051-11.09 1.916-18.992a19.794 19.794 0 0 0-12.029-8.975z" class="cls-5" transform="translate(-121.067 -156.033)"/>
                <path id="Path_396" d="M256.876 304.252s-8.862 100.356-8.106 140.018c.768 41.309 13.83 135.53 13.83 135.53h15.18s-2.4-91.8-1.056-132.373c1.46-44.225 13.58-143.176 13.58-143.176z" class="cls-14" transform="translate(-116.85 -149.253)"/>
                <path id="Path_397" d="M256.876 304.252s-8.862 100.356-8.106 140.018c.768 41.309 13.83 135.53 13.83 135.53h15.18s-2.4-91.8-1.056-132.373c1.46-44.225 13.58-143.176 13.58-143.176z" class="cls-15" transform="translate(-116.85 -149.253)"/>
                <path id="Path_398" d="M280.231 567.446h-17.816l-1.3-6.588 19.953-.8z" class="cls-5" transform="translate(-118.011 -136.279)"/>
                <path id="Path_399" d="M278.87 328.308c-11.208 26.124-2.255 73.794 1.707 91.532 2.033-26.638 5.461-59.2 8.132-83.1-1.709-13.54-4.678-20.49-9.839-8.432z" class="cls-12" transform="translate(-119.165 -148.348)"/>
                <path id="Path_400" d="M271.005 304.256s10.335 104.254 18.142 137.767c9.266 39.753 46.918 107.578 46.918 107.578l14.18-6.709s-24.306-77.224-31.4-98.211c-15.118-44.708-2.176-111.31-14.258-140.517z" class="cls-14" transform="translate(-118.938 -149.257)"/>
                <path id="Path_401" d="M271.005 304.256s10.335 104.254 18.142 137.767c9.266 39.753 46.918 107.578 46.918 107.578l14.18-6.709s-24.306-77.224-31.4-98.211c-15.118-44.708-2.176-111.31-14.258-140.517z" class="cls-15" transform="translate(-118.938 -149.257)"/>
                <path id="Path_402" d="M358.318 531.831l-17.594 8.325-4.131-5.515 20.318-10.879z" class="cls-5" transform="translate(-125.082 -138.12)"/>
                <path id="Path_403" d="M128.346 176.639c-30.814 29.013-33.685 79.109-6.413 111.89s74.36 35.836 105.173 6.821 33.683-79.11 6.41-111.89-74.354-35.826-105.17-6.821zm90.941 109.326c-25.938 24.415-65.569 21.838-88.519-5.757s-20.527-69.757 5.411-94.172 65.569-21.839 88.519 5.755 20.528 69.758-5.411 94.174z" class="cls-5" transform="translate(-101.013 -147.796)"/>
                <path id="Path_404" fill="#6cb43b" d="M179.715 313.005c-33.568-2.274-63.247-34.243-61.216-72.034s35-67.086 68.568-64.788 59.12 34.8 57.068 72.592c-2.058 37.752-30.885 66.494-64.42 64.23z" opacity="0.3" transform="translate(-105.024 -155.755)"/>
                <g id="Group_303" opacity="0.5" transform="translate(17.521 20.435)">
                    <path id="Path_405" d="M185.261 176.184h-1.108l-61.411 63.006-.078 1.284a76.621 76.621 0 0 0 9.722 42l87.619-90.006c-9.742-9.672-21.943-15.391-34.745-16.288z" class="cls-13" transform="translate(-122.551 -176.184)"/>
                    <path id="Path_406" d="M227.241 197.811l-88.532 90.822a62.956 62.956 0 0 0 9.957 10.577l86.355-88.646a69.443 69.443 0 0 0-7.781-12.752z" class="cls-13" transform="translate(-124.064 -175.087)"/>
                </g>
                <path id="Path_407" d="M252.634 305.605l-10.087 10.35a3.357 3.357 0 0 1-5.213-.363 4.82 4.82 0 0 1 .313-6.044l10.087-10.35a3.358 3.358 0 0 1 5.213.378 4.766 4.766 0 0 1-.313 6.029z" class="cls-5" transform="translate(-122.697 -156.564)"/>
                <path id="Path_408" d="M249.33 303.492c7.6 7.751 14.87 15.85 22.051 24.054s14.193 16.62 21.126 24.991S306.245 369.55 313 378.223c6.334 9.066 14.962 15.774 16.252 30.007a7.844 7.844 0 0 1-2.061 6.132 5.62 5.62 0 0 1-5.5 1.635c-12.042-3.218-16.721-13.961-23.707-22.362q-9.879-13.221-19.471-26.683t-18.832-27.363c-6.152-9.247-12.2-18.6-17.92-28.285a6.6 6.6 0 0 1 .752-7.858 4.59 4.59 0 0 1 6.82.047z" class="cls-5" transform="translate(-122.108 -157.37)"/>
                <path id="Path_409" d="M285.623 187.749c-.2 1.027-.821 1.738-1.408 1.511s-.886-1.1-.691-2.115.821-1.738 1.408-1.511.886 1.087.691 2.115z" class="cls-5" transform="translate(-120.105 -155.271)"/>
                <path id="Path_410" d="M274.593 185.3c-.2 1.027-.834 1.738-1.408 1.586s-.886-1.1-.691-2.13.821-1.738 1.408-1.586.887 1.106.691 2.13z" class="cls-5" transform="translate(-119.072 -155.395)"/>
                <path id="Path_411" d="M274.121 183.348l-1.994-1.254s.717 2.206 1.994 1.254z" class="cls-5" transform="translate(-119.043 -155.449)"/>
                <path id="Path_412" fill="#ffb068" d="M277.366 187.717a27.262 27.262 0 0 1-4.405 5.726 3.682 3.682 0 0 0 3.024 1.511z" transform="translate(-119.121 -155.164)"/>
                <path id="Path_413" d="M280.614 199.723a7.336 7.336 0 0 1-1.3-.227.307.307 0 0 1-.2-.363.262.262 0 0 1 .313-.227 6.483 6.483 0 0 0 6.321-1.707.26.26 0 0 1 .282-.141.3.3 0 0 1 .217.252.34.34 0 0 1-.122.327 6.877 6.877 0 0 1-5.513 2.085z" class="cls-5" transform="translate(-119.697 -154.69)"/>
                <path id="Path_414" d="M305.573 200.828a8.162 8.162 0 0 1-5.213 3.974c-2.815.6-3.91-2.387-2.958-5.3.886-2.629 3.441-6.044 6.152-5.379a3.924 3.924 0 0 1 2.574 2.721 4.8 4.8 0 0 1-.554 3.987z" class="cls-6" transform="translate(-121.379 -154.843)"/>
                <path id="Path_415" d="M289.879 183.526a.5.5 0 0 1-.586-.227c-1.447-2.312-4.627-2.281-4.653-2.281a.582.582 0 0 1-.534-.62.66.66 0 0 1 .148-.437.489.489 0 0 1 .373-.182c.156 0 3.753 0 5.526 2.8a.686.686 0 0 1-.117.861z" class="cls-5" transform="translate(-120.165 -155.566)"/>
                <path id="Path_416" d="M272.464 177.21a.549.549 0 0 1-.443-.332.669.669 0 0 1 .235-.831 4.686 4.686 0 0 1 4.861-.106.694.694 0 0 1 .2.846.5.5 0 0 1-.73.227 3.724 3.724 0 0 0-3.845.136.6.6 0 0 1-.278.06z" class="cls-5" transform="translate(-119.028 -155.793)"/>
                <path id="Path_417" d="M346.6 554.556h-.169a1.617 1.617 0 0 1-1.095-1.148 1.167 1.167 0 0 1 .065-1.058c.821-1.36 4.887-1.194 5.343-1.163a.241.241 0 0 1 .235.2.354.354 0 0 1-.065.332c-.999 1.144-2.914 3.033-4.314 2.837zm3.519-2.8c-1.629 0-3.806.212-4.236.922a.534.534 0 0 0 0 .469 1.111 1.111 0 0 0 .717.786c.747.2 2.037-.633 3.523-2.172z" class="cls-7" transform="translate(-125.893 -136.73)"/>
                <path id="Path_418" d="M350.427 551.934c-1.394-.2-3.91-1.3-4.249-2.569a1.161 1.161 0 0 1 .391-1.269 1.253 1.253 0 0 1 1.147-.317c1.6.363 3.271 3.581 3.349 3.717a.4.4 0 0 1 0 .3.268.268 0 0 1-.235.151 1.881 1.881 0 0 1-.4-.015zm-2.88-3.566a.813.813 0 0 0-.652.212c-.274.242-.261.438-.209.574.261.861 2.281 1.934 3.636 2.146-.6-1.042-1.746-2.7-2.7-2.916z" class="cls-7" transform="translate(-125.976 -136.903)"/>
                <path id="Path_419" d="M261.628 584.146a3.753 3.753 0 0 1-2.724-.8 1.848 1.848 0 0 1-.482-1.511.991.991 0 0 1 .443-.816c1.382-.891 5.865 1.768 6.36 2.07a.332.332 0 0 1 .143.317.273.273 0 0 1-.208.257 16.136 16.136 0 0 1-3.532.484zm-2.007-2.69a.93.93 0 0 0-.5.106.434.434 0 0 0-.183.333 1.273 1.273 0 0 0 .313 1c.678.71 2.528.831 5.018.347a13.276 13.276 0 0 0-4.649-1.786z" class="cls-7" transform="translate(-117.757 -135.225)"/>
                <path id="Path_420" d="M265.4 583.838h-.1c-1.3-.7-3.988-3.505-3.779-4.986 0-.347.261-.786.99-.876a1.75 1.75 0 0 1 1.473.544c1.421 1.36 1.681 4.865 1.681 5.016a.291.291 0 0 1-.1.272.218.218 0 0 1-.165.03zm-2.672-5.288h-.169c-.482 0-.508.287-.521.363-.13.876 1.668 3.1 3.037 4.049a7.77 7.77 0 0 0-1.434-4.019 1.205 1.205 0 0 0-.916-.393z" class="cls-7" transform="translate(-118.047 -135.371)"/>
                <path id="Path_421" d="M285.151 185.808l-1.994-1.269s.716 2.205 1.994 1.269z" class="cls-5" transform="translate(-120.076 -155.325)"/>
                <path id="Path_422" d="M303.872 301.309l1.16 4.729c.156.378-.208.755-.743.755h-47.01a.718.718 0 0 1-.769-.544l-.417-4.729c0-.332.326-.6.782-.6h46.2a.777.777 0 0 1 .795.393z" class="cls-14" transform="translate(-117.541 -149.423)"/>
                <path id="Path_423" fill="#b7b7b7" d="M303.872 301.309l1.16 4.729c.156.378-.208.755-.743.755h-47.01a.718.718 0 0 1-.769-.544l-.417-4.729c0-.332.326-.6.782-.6h46.2a.777.777 0 0 1 .795.393z" transform="translate(-117.541 -149.423)"/>
                <path id="Path_424" d="M301.677 307.313h1.238c.248 0 .43-.136.417-.317l-.586-6.15c0-.181-.235-.332-.469-.332h-1.3c-.248 0-.443.151-.417.332l.573 6.15a.6.6 0 0 0 .544.317z" class="cls-14" transform="translate(-121.706 -149.443)"/>
                <path id="Path_425" d="M301.677 307.313h1.238c.248 0 .43-.136.417-.317l-.586-6.15c0-.181-.235-.332-.469-.332h-1.3c-.248 0-.443.151-.417.332l.573 6.15a.6.6 0 0 0 .544.317z" class="cls-20" transform="translate(-121.706 -149.443)"/>
                <path id="Path_426" d="M261.19 307.313h1.238c.248 0 .43-.136.417-.317l-.574-6.15c0-.181-.234-.332-.482-.332h-1.238c-.248 0-.43.151-.417.332l.574 6.15a.454.454 0 0 0 .482.317z" class="cls-14" transform="translate(-117.919 -149.443)"/>
                <path id="Path_427" d="M261.19 307.313h1.238c.248 0 .43-.136.417-.317l-.574-6.15c0-.181-.234-.332-.482-.332h-1.238c-.248 0-.43.151-.417.332l.574 6.15a.454.454 0 0 0 .482.317z" class="cls-20" transform="translate(-117.919 -149.443)"/>
                <path id="Path_428" d="M281.357 307.313h1.3c.248 0 .43-.136.417-.317l-.573-6.15c0-.181-.235-.332-.482-.332h-1.238c-.248 0-.43.151-.417.332l.573 6.15c-.037.18.173.317.42.317z" class="cls-14" transform="translate(-119.815 -149.443)"/>
                <path id="Path_429" d="M281.357 307.313h1.3c.248 0 .43-.136.417-.317l-.573-6.15c0-.181-.235-.332-.482-.332h-1.238c-.248 0-.43.151-.417.332l.573 6.15c-.037.18.173.317.42.317z" class="cls-20" transform="translate(-119.815 -149.443)"/>
                <path id="Path_430" d="M276.662 314.566l-11.078-5.741 3.154 12.737s7.038 1.843 10.1-2.251z" class="cls-6" transform="translate(-118.43 -149.021)"/>
                <path id="Path_431" d="M318.307 244.014c.508 4.457.912 8.945 1.368 13.4l1.173 13.447c.417 4.533.73 8.96 1.095 13.447l.482 6.724.13 1.692v2.856a15.968 15.968 0 0 1-1.555 5.457 21.883 21.883 0 0 1-5.213 6.618 40.2 40.2 0 0 1-5.578 4.095 71.528 71.528 0 0 1-11.352 5.515c-3.819 1.511-7.65 2.765-11.495 3.883A112.2 112.2 0 0 1 275.7 323.9l-1.3-6.421c3.584-1.375 7.246-2.78 10.8-4.367s7.116-3.143 10.531-4.941a77.533 77.533 0 0 0 9.749-5.893 31.18 31.18 0 0 0 4.092-3.43 11.346 11.346 0 0 0 2.463-3.415 2.217 2.217 0 0 0 .209-.937v-.453l-.209-1.662-.834-6.693c-.508-4.533-1.082-8.93-1.551-13.4l-1.473-13.4c-.417-4.533-.9-8.945-1.3-13.432z" class="cls-6" transform="translate(-119.256 -152.308)"/>
                <path id="Path_432" d="M315.685 229.1c4.561 1.6 10.061 19.854 10.061 19.854l-15.991 19.083s-8.211-19.642-6.295-26.472c2.007-7.129 7.012-14.306 12.225-12.465z" class="cls-7" transform="translate(-121.951 -153.079)"/>
                <path id="Path_433" d="M255.475 311.469l3.128 10.486 9.188-.393-3.154-12.737z" class="cls-6" transform="translate(-117.483 -149.021)"/>
            </g>
            <g id="freepik--list-of-people--inject-1" transform="translate(48.129 157.352)">
                <path id="Path_434" d="M422.714 277.721c3-24.84-11.964-44.98-33.39-44.98h156.55c21.439 0 36.388 20.141 33.4 44.98z" class="cls-5" transform="translate(-222.89 -232.74)"/>
                <path id="Path_435" d="M422.714 277.721c3-24.84-11.964-44.98-33.39-44.98h156.55c21.439 0 36.388 20.141 33.4 44.98z" class="cls-21" transform="translate(-222.89 -232.74)"/>
                <path id="Path_436" d="M381.056 232.74h156.55c-21.426 0-41.223 16.625-44.207 37.129L458 512.876c-2.984 20.517-22.781 37.142-44.207 37.142h-78.951c-21.426 0-36.375-16.625-33.39-37.142l35.384-243.006c2.997-20.504 22.781-37.13 44.22-37.13z" class="cls-7" transform="translate(-214.622 -232.74)"/>
                <path id="Path_437" d="M372.369 555.729c-2.985 24.855 11.964 45 33.4 45h-156.56c-21.426 0-36.375-20.141-33.39-45z" class="cls-5" transform="translate(-215.44 -283.447)"/>
                <path id="Path_438" d="M372.369 555.729c-2.985 24.855 11.964 45 33.4 45h-156.56c-21.426 0-36.375-20.141-33.39-45z" class="cls-21" transform="translate(-215.44 -283.447)"/>
                <path id="Path_439" d="M416 320.257h60.616a4.156 4.156 0 0 0 3.662-3.717 3.557 3.557 0 0 0-.623-2.621 2.6 2.6 0 0 0-2.14-1.111H416.9a4.076 4.076 0 0 0-3.662 3.732 3.539 3.539 0 0 0 .623 2.616 2.588 2.588 0 0 0 2.139 1.101z" class="cls-22" transform="translate(-228.324 -243.654)"/>
                <path id="Path_440" d="M414.156 333.443h44.559a4.072 4.072 0 0 0 3.662-3.717 3.538 3.538 0 0 0-.623-2.616 2.588 2.588 0 0 0-2.14-1.1h-44.559a4.059 4.059 0 0 0-3.662 3.717 3.539 3.539 0 0 0 .623 2.616 2.588 2.588 0 0 0 2.14 1.1z" class="cls-22" transform="translate(-228.506 -245.452)"/>
                <path id="Path_458" d="M23.783.07C36.1-.841 45.441 7.2 44.648 18.023s-11.42 20.341-23.736 21.252S-.746 32.149.047 21.323 11.467.982 23.783.07z" class="cls-22" transform="rotate(-43.01 160.121 -107.867)"/>
                <path id="Path_441" d="M354.032 321.641a21.226 21.226 0 0 0 .938 9.549c2.3 6.531 7.862 10.717 13.945 10.5 6.635-.183 12.777-4.1 16.461-10.5a24.656 24.656 0 0 0 3.232-9.549c1.3-11.06-5.33-20.035-14.883-20.035-9.864.328-18.132 8.74-19.693 20.035z" class="cls-23" transform="translate(-224.864 -243.348)"/>
                <path id="Path_442" d="M359.241 328.062c1.765 5.006 6.024 8.216 10.687 8.053 5.094-.137 9.811-3.142 12.642-8.053a16.979 16.979 0 0 0-11.169-4.095 21.088 21.088 0 0 0-12.16 4.095z" class="cls-24" transform="translate(-225.362 -245.39)"/>
                <path id="Path_443" d="M367.243 316.259a6.507 6.507 0 0 0 1.14 4.836 4.753 4.753 0 0 0 3.956 2.024c3.373-.112 6.2-2.995 6.725-6.86a6.491 6.491 0 0 0-1.136-4.825 4.741 4.741 0 0 0-3.947-2.019c-3.372.11-6.2 2.983-6.738 6.845z" class="cls-24" transform="translate(-226.036 -243.433)"/>
                <path id="Path_444" d="M407.973 377.877h20.448a4.072 4.072 0 0 0 3.662-3.717 3.538 3.538 0 0 0-.623-2.616 2.588 2.588 0 0 0-2.14-1.1h-20.461a4.048 4.048 0 0 0-3.649 3.717 3.539 3.539 0 0 0 .623 2.616 2.587 2.587 0 0 0 2.14 1.1z" class="cls-22" transform="translate(-228.479 -251.508)"/>
                <path id="Path_445" d="M444.153 377.877h29.22a4.072 4.072 0 0 0 3.662-3.717 3.523 3.523 0 0 0-.617-2.622 2.573 2.573 0 0 0-2.146-1.095h-29.22a4.059 4.059 0 0 0-3.662 3.717 3.539 3.539 0 0 0 .623 2.616 2.587 2.587 0 0 0 2.14 1.101z" class="cls-22" transform="translate(-230.807 -251.508)"/>
                <path id="Path_446" d="M406.132 391.079h50.085a4.076 4.076 0 0 0 3.662-3.732 3.539 3.539 0 0 0-.623-2.616 2.588 2.588 0 0 0-2.14-1.1h-50.1a4.075 4.075 0 0 0-3.649 3.717 3.541 3.541 0 0 0 .617 2.627 2.589 2.589 0 0 0 2.148 1.104z" class="cls-22" transform="translate(-227.875 -253.307)"/>
                <path id="Path_459" d="M23.783.07C36.1-.841 45.441 7.2 44.648 18.023s-11.42 20.341-23.736 21.252S-.746 32.149.047 21.323 11.467.982 23.783.07z" class="cls-22" transform="rotate(-43.01 217.354 -74.328)"/>
                <path id="Path_447" d="M345.993 379.159a21.2 21.2 0 0 0 .951 9.549c2.282 6.522 7.811 10.723 13.88 10.546 6.636-.178 12.78-4.1 16.46-10.5a24.38 24.38 0 0 0 3.245-9.549c1.3-11.06-5.33-20.035-14.883-20.035-9.835.344-18.077 8.73-19.653 19.989z" class="cls-23" transform="translate(-224.317 -252.214)"/>
                <path id="Path_448" d="M351.2 385.726c1.769 5.008 6.034 8.218 10.7 8.053 5.089-.141 9.8-3.146 12.629-8.053a16.956 16.956 0 0 0-11.169-4.095 21.157 21.157 0 0 0-12.16 4.095z" class="cls-24" transform="translate(-224.808 -253.386)"/>
                <path id="Path_449" d="M359.219 373.88a6.508 6.508 0 0 0 1.136 4.83 4.756 4.756 0 0 0 3.947 2.03c3.377-.111 6.207-2.992 6.738-6.86a6.491 6.491 0 0 0-1.136-4.825 4.741 4.741 0 0 0-3.947-2.019c-3.373.109-6.201 2.982-6.738 6.844z" class="cls-24" transform="translate(-225.475 -251.469)"/>
                <path id="Path_450" d="M399.933 435.513h35.619a4.075 4.075 0 0 0 3.662-3.732 3.539 3.539 0 0 0-.623-2.616 2.587 2.587 0 0 0-2.14-1.1h-35.632a4.072 4.072 0 0 0-3.662 3.717 3.54 3.54 0 0 0 .621 2.633 2.585 2.585 0 0 0 2.155 1.098z" class="cls-22" transform="translate(-227.7 -259.363)"/>
                <path id="Path_451" d="M398.036 448.7h55.533a4.158 4.158 0 0 0 3.662-3.732 3.555 3.555 0 0 0-.633-2.617 2.6 2.6 0 0 0-2.143-1.1h-55.52a4.072 4.072 0 0 0-3.662 3.717 3.541 3.541 0 0 0 .617 2.627 2.588 2.588 0 0 0 2.146 1.105z" class="cls-22" transform="translate(-227.245 -261.161)"/>
                <path id="Path_452" d="M330.894 504.983h85.026c2.569-.1 4.719-2.287 5.135-5.228a4.952 4.952 0 0 0-.882-3.688 3.613 3.613 0 0 0-3.028-1.524h-85c-2.566.086-4.716 2.275-5.122 5.213a4.957 4.957 0 0 0 .864 3.68 3.623 3.623 0 0 0 3.007 1.547z" class="cls-25" transform="translate(-222.367 -268.816)"/>
                <path id="Path_453" d="M328.321 523.476H390.8c2.568-.093 4.717-2.287 5.122-5.228a4.952 4.952 0 0 0-.882-3.688 3.613 3.613 0 0 0-3.028-1.525h-62.44c-2.566.091-4.719 2.275-5.135 5.213a5.049 5.049 0 0 0 .9 3.653 3.707 3.707 0 0 0 2.984 1.575z" class="cls-25" transform="translate(-222.488 -271.364)"/>
                <path id="Path_454" d="M363.71 278.384h101.382a2.949 2.949 0 0 0 2.607-2.7 2.561 2.561 0 0 0-.454-1.9 1.871 1.871 0 0 0-1.553-.793H364.361a2.973 2.973 0 0 0-2.607 2.689 2.582 2.582 0 0 0 .437 1.878 1.9 1.9 0 0 0 1.519.826z" class="cls-25" transform="translate(-224.3 -230.699)"/>
                <path id="Path_460" d="M23.783.07C36.1-.841 45.441 7.2 44.648 18.023s-11.42 20.341-23.736 21.252S-.746 32.149.047 21.323 11.467.982 23.783.07z" class="cls-22" transform="rotate(-43.01 274.583 -40.78)"/>
                <path id="Path_455" d="M337.912 436.84a21.243 21.243 0 0 0 .938 9.549c2.31 6.522 7.866 10.7 13.945 10.486 6.632-.182 12.772-4.094 16.46-10.486a24.738 24.738 0 0 0 3.232-9.549c1.3-11.075-5.33-20.05-14.883-20.05-9.867.329-18.137 8.749-19.693 20.05z" class="cls-23" transform="translate(-223.766 -261.09)"/>
                <path id="Path_456" d="M343.179 443.361c1.77 5.008 6.034 8.218 10.7 8.053 5.089-.141 9.8-3.146 12.629-8.053a16.9 16.9 0 0 0-11.169-4.095 20.983 20.983 0 0 0-12.16 4.095z" class="cls-24" transform="translate(-224.254 -261.378)"/>
                <path id="Path_457" d="M351.18 431.516a6.506 6.506 0 0 0 1.146 4.826 4.753 4.753 0 0 0 3.95 2.019c3.369-.111 6.194-2.986 6.725-6.845a6.508 6.508 0 0 0-1.136-4.83 4.756 4.756 0 0 0-3.947-2.03c-3.376.111-6.206 2.992-6.738 6.86z" class="cls-24" transform="translate(-224.914 -259.504)"/>
            </g>
        </g>
    </g>
</svg>
